{
.appVersion = "1286";
customParameters = (
{
name = glyphOrder;
value = (
placeholder,
"SHAP-100",
"SHAP-200",
"SHAP-300",
"SHAP-333",
"SHAP-366",
"SHAP-400",
"SHAP-433",
"SHAP-466",
"SHAP-500",
"SHAP-600",
"SHAP-633",
"SHAP-666",
"SHAP-700",
"SHAP-733",
"SHAP-766",
"SHAP-800",
"SHAP-900",
"SHAP-1000",
"SHAP-1100",
"SHAP-1133",
"SHAP-1166",
"SHAP-1200",
"SHAP-1233",
"SHAP-1266",
"SHAP-1300",
"SHAP-1400",
"SHAP-1500",
"SHAP-1600",
"SHAP-1633",
"SHAP-1666",
"SHAP-1700",
"SHAP-1733",
"SHAP-1766",
"SHAP-1800",
"SHAP-1900",
"SHAP-2000",
"wght-100",
"wght-400",
"wght-900",
"opsz-10",
"opsz-50",
"opsz-100"
);
},
{
name = Axes;
value = (
{
Name = Shape;
Tag = SHAP;
}
);
}
);
date = "2020-05-11 14:11:43 +0000";
familyName = "Handjet Shapes";
fontMaster = (
{
ascender = 800;
capHeight = 700;
custom = Beginning;
customValue = 100;
customValue1 = 100;
customValue2 = 100;
descender = -200;
id = "D705B390-3487-4797-B79F-A044C23E058D";
xHeight = 500;
},
{
ascender = 800;
capHeight = 700;
custom = End;
customValue = 100;
customValue1 = 100;
customValue2 = 100;
descender = -200;
id = "21F17980-9185-40A4-B5A3-13BE69C2F7C8";
weightValue = 1900;
xHeight = 500;
}
);
glyphs = (
{
color = 6;
export = 0;
glyphname = "SHAP-100";
lastChange = "2020-05-12 15:53:30 +0000";
layers = (
{
background = {
paths = (
{
closed = 1;
nodes = (
"34 -120 OFFCURVE",
"-34 -120 OFFCURVE",
"-120 -120 CURVE SMOOTH",
"-120 -120 OFFCURVE",
"-120 -120 OFFCURVE",
"-120 -120 CURVE SMOOTH",
"-120 -34 OFFCURVE",
"-120 34 OFFCURVE",
"-120 120 CURVE SMOOTH",
"-120 120 OFFCURVE",
"-120 120 OFFCURVE",
"-120 120 CURVE SMOOTH",
"-34 120 OFFCURVE",
"34 120 OFFCURVE",
"120 120 CURVE SMOOTH",
"120 120 OFFCURVE",
"120 120 OFFCURVE",
"120 120 CURVE SMOOTH",
"120 34 OFFCURVE",
"120 -34 OFFCURVE",
"120 -120 CURVE SMOOTH",
"120 -120 OFFCURVE",
"120 -120 OFFCURVE",
"120 -120 CURVE SMOOTH"
);
}
);
};
layerId = "D705B390-3487-4797-B79F-A044C23E058D";
paths = (
{
closed = 1;
nodes = (
"-120 120 OFFCURVE",
"-120 120 OFFCURVE",
"-120 120 CURVE SMOOTH",
"-120 120 OFFCURVE",
"-120 120 OFFCURVE",
"-120 120 CURVE SMOOTH",
"-120 120 OFFCURVE",
"-120 120 OFFCURVE",
"-120 120 CURVE SMOOTH",
"-120 120 OFFCURVE",
"-120 120 OFFCURVE",
"-120 120 CURVE SMOOTH",
"-120 120 OFFCURVE",
"-120 120 OFFCURVE",
"-120 120 CURVE SMOOTH",
"-120 120 OFFCURVE",
"-120 120 OFFCURVE",
"-120 120 CURVE SMOOTH",
"-120 120 OFFCURVE",
"-120 120 OFFCURVE",
"-120 120 CURVE SMOOTH",
"-120 120 OFFCURVE",
"-120 120 OFFCURVE",
"-120 120 CURVE SMOOTH"
);
}
);
width = 0;
},
{
background = {
paths = (
{
closed = 1;
nodes = (
"34 -120 OFFCURVE",
"-34 -120 OFFCURVE",
"-120 -120 CURVE SMOOTH",
"-120 -120 OFFCURVE",
"-120 -120 OFFCURVE",
"-120 -120 CURVE SMOOTH",
"-120 -34 OFFCURVE",
"-120 34 OFFCURVE",
"-120 120 CURVE SMOOTH",
"-120 120 OFFCURVE",
"-120 120 OFFCURVE",
"-120 120 CURVE SMOOTH",
"-34 120 OFFCURVE",
"34 120 OFFCURVE",
"120 120 CURVE SMOOTH",
"120 120 OFFCURVE",
"120 120 OFFCURVE",
"120 120 CURVE SMOOTH",
"120 34 OFFCURVE",
"120 -34 OFFCURVE",
"120 -120 CURVE SMOOTH",
"120 -120 OFFCURVE",
"120 -120 OFFCURVE",
"120 -120 CURVE SMOOTH"
);
}
);
};
layerId = "21F17980-9185-40A4-B5A3-13BE69C2F7C8";
paths = (
{
closed = 1;
nodes = (
"-120 120 OFFCURVE",
"-120 120 OFFCURVE",
"-120 120 CURVE SMOOTH",
"-120 120 OFFCURVE",
"-120 120 OFFCURVE",
"-120 120 CURVE SMOOTH",
"-120 120 OFFCURVE",
"-120 120 OFFCURVE",
"-120 120 CURVE SMOOTH",
"-120 120 OFFCURVE",
"-120 120 OFFCURVE",
"-120 120 CURVE SMOOTH",
"-120 120 OFFCURVE",
"-120 120 OFFCURVE",
"-120 120 CURVE SMOOTH",
"-120 120 OFFCURVE",
"-120 120 OFFCURVE",
"-120 120 CURVE SMOOTH",
"-120 120 OFFCURVE",
"-120 120 OFFCURVE",
"-120 120 CURVE SMOOTH",
"-120 120 OFFCURVE",
"-120 120 OFFCURVE",
"-120 120 CURVE SMOOTH"
);
}
);
width = 0;
}
);
},
{
color = 6;
export = 0;
glyphname = "SHAP-200";
lastChange = "2020-05-12 15:53:30 +0000";
layers = (
{
background = {
paths = (
{
closed = 1;
nodes = (
"34 -120 OFFCURVE",
"-34 -120 OFFCURVE",
"-120 -120 CURVE SMOOTH",
"-120 -120 OFFCURVE",
"-120 -120 OFFCURVE",
"-120 -120 CURVE SMOOTH",
"-120 -34 OFFCURVE",
"-120 34 OFFCURVE",
"-120 120 CURVE SMOOTH",
"-120 120 OFFCURVE",
"-120 120 OFFCURVE",
"-120 120 CURVE SMOOTH",
"-34 120 OFFCURVE",
"34 120 OFFCURVE",
"120 120 CURVE SMOOTH",
"120 120 OFFCURVE",
"120 120 OFFCURVE",
"120 120 CURVE SMOOTH",
"120 34 OFFCURVE",
"120 -34 OFFCURVE",
"120 -120 CURVE SMOOTH",
"120 -120 OFFCURVE",
"120 -120 OFFCURVE",
"120 -120 CURVE SMOOTH"
);
}
);
};
layerId = "D705B390-3487-4797-B79F-A044C23E058D";
paths = (
{
closed = 1;
nodes = (
"-120 -120 OFFCURVE",
"-120 -120 OFFCURVE",
"-120 -120 CURVE SMOOTH",
"-120 -120 OFFCURVE",
"-120 -120 OFFCURVE",
"-120 -120 CURVE SMOOTH",
"-120 -34 OFFCURVE",
"-120 34 OFFCURVE",
"-120 120 CURVE SMOOTH",
"-120 120 OFFCURVE",
"-120 120 OFFCURVE",
"-120 120 CURVE SMOOTH",
"-34 120 OFFCURVE",
"34 120 OFFCURVE",
"120 120 CURVE SMOOTH",
"120 120 OFFCURVE",
"120 120 OFFCURVE",
"120 120 CURVE SMOOTH",
"120 120 OFFCURVE",
"120 120 OFFCURVE",
"120 120 CURVE SMOOTH",
"120 120 OFFCURVE",
"-120 -120 OFFCURVE",
"-120 -120 CURVE SMOOTH"
);
}
);
width = 0;
},
{
background = {
paths = (
{
closed = 1;
nodes = (
"34 -120 OFFCURVE",
"-34 -120 OFFCURVE",
"-120 -120 CURVE SMOOTH",
"-120 -120 OFFCURVE",
"-120 -120 OFFCURVE",
"-120 -120 CURVE SMOOTH",
"-120 -34 OFFCURVE",
"-120 34 OFFCURVE",
"-120 120 CURVE SMOOTH",
"-120 120 OFFCURVE",
"-120 120 OFFCURVE",
"-120 120 CURVE SMOOTH",
"-34 120 OFFCURVE",
"34 120 OFFCURVE",
"120 120 CURVE SMOOTH",
"120 120 OFFCURVE",
"120 120 OFFCURVE",
"120 120 CURVE SMOOTH",
"120 34 OFFCURVE",
"120 -34 OFFCURVE",
"120 -120 CURVE SMOOTH",
"120 -120 OFFCURVE",
"120 -120 OFFCURVE",
"120 -120 CURVE SMOOTH"
);
}
);
};
layerId = "21F17980-9185-40A4-B5A3-13BE69C2F7C8";
paths = (
{
closed = 1;
nodes = (
"-120 -120 OFFCURVE",
"-120 -120 OFFCURVE",
"-120 -120 CURVE SMOOTH",
"-120 -120 OFFCURVE",
"-120 -120 OFFCURVE",
"-120 -120 CURVE SMOOTH",
"-120 -34 OFFCURVE",
"-120 34 OFFCURVE",
"-120 120 CURVE SMOOTH",
"-120 120 OFFCURVE",
"-120 120 OFFCURVE",
"-120 120 CURVE SMOOTH",
"-34 120 OFFCURVE",
"34 120 OFFCURVE",
"120 120 CURVE SMOOTH",
"120 120 OFFCURVE",
"120 120 OFFCURVE",
"120 120 CURVE SMOOTH",
"120 120 OFFCURVE",
"120 120 OFFCURVE",
"120 120 CURVE SMOOTH",
"120 120 OFFCURVE",
"-120 -120 OFFCURVE",
"-120 -120 CURVE SMOOTH"
);
}
);
width = 0;
}
);
},
{
color = 6;
export = 0;
glyphname = "SHAP-300";
lastChange = "2020-05-12 15:53:30 +0000";
layers = (
{
background = {
paths = (
{
closed = 1;
nodes = (
"34 -120 OFFCURVE",
"-34 -120 OFFCURVE",
"-120 -120 CURVE SMOOTH",
"-120 -120 OFFCURVE",
"-120 -120 OFFCURVE",
"-120 -120 CURVE SMOOTH",
"-120 -34 OFFCURVE",
"-120 34 OFFCURVE",
"-120 120 CURVE SMOOTH",
"-120 120 OFFCURVE",
"-120 120 OFFCURVE",
"-120 120 CURVE SMOOTH",
"-34 120 OFFCURVE",
"34 120 OFFCURVE",
"120 120 CURVE SMOOTH",
"120 120 OFFCURVE",
"120 120 OFFCURVE",
"120 120 CURVE SMOOTH",
"120 34 OFFCURVE",
"120 -34 OFFCURVE",
"120 -120 CURVE SMOOTH",
"120 -120 OFFCURVE",
"120 -120 OFFCURVE",
"120 -120 CURVE SMOOTH"
);
}
);
};
layerId = "D705B390-3487-4797-B79F-A044C23E058D";
paths = (
{
closed = 1;
nodes = (
"34 -120 OFFCURVE",
"-34 -120 OFFCURVE",
"-120 -120 CURVE SMOOTH",
"-120 -120 OFFCURVE",
"-120 -120 OFFCURVE",
"-120 -120 CURVE SMOOTH",
"-120 -34 OFFCURVE",
"-120 34 OFFCURVE",
"-120 120 CURVE SMOOTH",
"-120 120 OFFCURVE",
"-120 120 OFFCURVE",
"-120 120 CURVE SMOOTH",
"-34 120 OFFCURVE",
"34 120 OFFCURVE",
"120 120 CURVE SMOOTH",
"120 120 OFFCURVE",
"120 120 OFFCURVE",
"120 120 CURVE SMOOTH",
"120 34 OFFCURVE",
"120 -34 OFFCURVE",
"120 -120 CURVE SMOOTH",
"120 -120 OFFCURVE",
"120 -120 OFFCURVE",
"120 -120 CURVE SMOOTH"
);
}
);
width = 0;
},
{
background = {
paths = (
{
closed = 1;
nodes = (
"34 -120 OFFCURVE",
"-34 -120 OFFCURVE",
"-120 -120 CURVE SMOOTH",
"-120 -120 OFFCURVE",
"-120 -120 OFFCURVE",
"-120 -120 CURVE SMOOTH",
"-120 -34 OFFCURVE",
"-120 34 OFFCURVE",
"-120 120 CURVE SMOOTH",
"-120 120 OFFCURVE",
"-120 120 OFFCURVE",
"-120 120 CURVE SMOOTH",
"-34 120 OFFCURVE",
"34 120 OFFCURVE",
"120 120 CURVE SMOOTH",
"120 120 OFFCURVE",
"120 120 OFFCURVE",
"120 120 CURVE SMOOTH",
"120 34 OFFCURVE",
"120 -34 OFFCURVE",
"120 -120 CURVE SMOOTH",
"120 -120 OFFCURVE",
"120 -120 OFFCURVE",
"120 -120 CURVE SMOOTH"
);
}
);
};
layerId = "21F17980-9185-40A4-B5A3-13BE69C2F7C8";
paths = (
{
closed = 1;
nodes = (
"34 -120 OFFCURVE",
"-34 -120 OFFCURVE",
"-120 -120 CURVE SMOOTH",
"-120 -120 OFFCURVE",
"-120 -120 OFFCURVE",
"-120 -120 CURVE SMOOTH",
"-120 -34 OFFCURVE",
"-120 34 OFFCURVE",
"-120 120 CURVE SMOOTH",
"-120 120 OFFCURVE",
"-120 120 OFFCURVE",
"-120 120 CURVE SMOOTH",
"-34 120 OFFCURVE",
"34 120 OFFCURVE",
"120 120 CURVE SMOOTH",
"120 120 OFFCURVE",
"120 120 OFFCURVE",
"120 120 CURVE SMOOTH",
"120 34 OFFCURVE",
"120 -34 OFFCURVE",
"120 -120 CURVE SMOOTH",
"120 -120 OFFCURVE",
"120 -120 OFFCURVE",
"120 -120 CURVE SMOOTH"
);
}
);
width = 0;
}
);
},
{
color = 6;
export = 0;
glyphname = "SHAP-333";
lastChange = "2020-05-12 15:53:30 +0000";
layers = (
{
background = {
paths = (
{
closed = 1;
nodes = (
"34 -120 OFFCURVE",
"-34 -120 OFFCURVE",
"-120 -120 CURVE SMOOTH",
"-120 -120 OFFCURVE",
"-120 -120 OFFCURVE",
"-120 -120 CURVE SMOOTH",
"-120 -34 OFFCURVE",
"-120 34 OFFCURVE",
"-120 120 CURVE SMOOTH",
"-120 120 OFFCURVE",
"-120 120 OFFCURVE",
"-120 120 CURVE SMOOTH",
"-34 120 OFFCURVE",
"34 120 OFFCURVE",
"120 120 CURVE SMOOTH",
"120 120 OFFCURVE",
"120 120 OFFCURVE",
"120 120 CURVE SMOOTH",
"120 34 OFFCURVE",
"120 -34 OFFCURVE",
"120 -120 CURVE SMOOTH",
"120 -120 OFFCURVE",
"120 -120 OFFCURVE",
"120 -120 CURVE SMOOTH"
);
}
);
};
layerId = "D705B390-3487-4797-B79F-A044C23E058D";
paths = (
{
closed = 1;
nodes = (
"-31 -121 OFFCURVE",
"-89 -87 OFFCURVE",
"-164 -44 CURVE SMOOTH",
"-164 -44 OFFCURVE",
"-164 -44 OFFCURVE",
"-164 -44 CURVE SMOOTH",
"-121 31 OFFCURVE",
"-87 89 OFFCURVE",
"-44 164 CURVE SMOOTH",
"-44 164 OFFCURVE",
"-44 164 OFFCURVE",
"-44 164 CURVE SMOOTH",
"31 121 OFFCURVE",
"89 87 OFFCURVE",
"164 44 CURVE SMOOTH",
"164 44 OFFCURVE",
"164 44 OFFCURVE",
"164 44 CURVE SMOOTH",
"121 -31 OFFCURVE",
"87 -89 OFFCURVE",
"44 -164 CURVE SMOOTH",
"44 -164 OFFCURVE",
"44 -164 OFFCURVE",
"44 -164 CURVE SMOOTH"
);
}
);
width = 0;
},
{
background = {
paths = (
{
closed = 1;
nodes = (
"34 -120 OFFCURVE",
"-34 -120 OFFCURVE",
"-120 -120 CURVE SMOOTH",
"-120 -120 OFFCURVE",
"-120 -120 OFFCURVE",
"-120 -120 CURVE SMOOTH",
"-120 -34 OFFCURVE",
"-120 34 OFFCURVE",
"-120 120 CURVE SMOOTH",
"-120 120 OFFCURVE",
"-120 120 OFFCURVE",
"-120 120 CURVE SMOOTH",
"-34 120 OFFCURVE",
"34 120 OFFCURVE",
"120 120 CURVE SMOOTH",
"120 120 OFFCURVE",
"120 120 OFFCURVE",
"120 120 CURVE SMOOTH",
"120 34 OFFCURVE",
"120 -34 OFFCURVE",
"120 -120 CURVE SMOOTH",
"120 -120 OFFCURVE",
"120 -120 OFFCURVE",
"120 -120 CURVE SMOOTH"
);
}
);
};
layerId = "21F17980-9185-40A4-B5A3-13BE69C2F7C8";
paths = (
{
closed = 1;
nodes = (
"-31 -121 OFFCURVE",
"-89 -87 OFFCURVE",
"-164 -44 CURVE SMOOTH",
"-164 -44 OFFCURVE",
"-164 -44 OFFCURVE",
"-164 -44 CURVE SMOOTH",
"-121 31 OFFCURVE",
"-87 89 OFFCURVE",
"-44 164 CURVE SMOOTH",
"-44 164 OFFCURVE",
"-44 164 OFFCURVE",
"-44 164 CURVE SMOOTH",
"31 121 OFFCURVE",
"89 87 OFFCURVE",
"164 44 CURVE SMOOTH",
"164 44 OFFCURVE",
"164 44 OFFCURVE",
"164 44 CURVE SMOOTH",
"121 -31 OFFCURVE",
"87 -89 OFFCURVE",
"44 -164 CURVE SMOOTH",
"44 -164 OFFCURVE",
"44 -164 OFFCURVE",
"44 -164 CURVE SMOOTH"
);
}
);
width = 0;
}
);
},
{
color = 6;
export = 0;
glyphname = "SHAP-366";
lastChange = "2020-05-12 15:53:30 +0000";
layers = (
{
background = {
paths = (
{
closed = 1;
nodes = (
"34 -120 OFFCURVE",
"-34 -120 OFFCURVE",
"-120 -120 CURVE SMOOTH",
"-120 -120 OFFCURVE",
"-120 -120 OFFCURVE",
"-120 -120 CURVE SMOOTH",
"-120 -34 OFFCURVE",
"-120 34 OFFCURVE",
"-120 120 CURVE SMOOTH",
"-120 120 OFFCURVE",
"-120 120 OFFCURVE",
"-120 120 CURVE SMOOTH",
"-34 120 OFFCURVE",
"34 120 OFFCURVE",
"120 120 CURVE SMOOTH",
"120 120 OFFCURVE",
"120 120 OFFCURVE",
"120 120 CURVE SMOOTH",
"120 34 OFFCURVE",
"120 -34 OFFCURVE",
"120 -120 CURVE SMOOTH",
"120 -120 OFFCURVE",
"120 -120 OFFCURVE",
"120 -120 CURVE SMOOTH"
);
}
);
};
layerId = "D705B390-3487-4797-B79F-A044C23E058D";
paths = (
{
closed = 1;
nodes = (
"-87 -89 OFFCURVE",
"-121 -31 OFFCURVE",
"-164 44 CURVE SMOOTH",
"-164 44 OFFCURVE",
"-164 44 OFFCURVE",
"-164 44 CURVE SMOOTH",
"-89 87 OFFCURVE",
"-31 121 OFFCURVE",
"44 164 CURVE SMOOTH",
"44 164 OFFCURVE",
"44 164 OFFCURVE",
"44 164 CURVE SMOOTH",
"87 89 OFFCURVE",
"121 31 OFFCURVE",
"164 -44 CURVE SMOOTH",
"164 -44 OFFCURVE",
"164 -44 OFFCURVE",
"164 -44 CURVE SMOOTH",
"89 -87 OFFCURVE",
"31 -121 OFFCURVE",
"-44 -164 CURVE SMOOTH",
"-44 -164 OFFCURVE",
"-44 -164 OFFCURVE",
"-44 -164 CURVE SMOOTH"
);
}
);
width = 0;
},
{
background = {
paths = (
{
closed = 1;
nodes = (
"34 -120 OFFCURVE",
"-34 -120 OFFCURVE",
"-120 -120 CURVE SMOOTH",
"-120 -120 OFFCURVE",
"-120 -120 OFFCURVE",
"-120 -120 CURVE SMOOTH",
"-120 -34 OFFCURVE",
"-120 34 OFFCURVE",
"-120 120 CURVE SMOOTH",
"-120 120 OFFCURVE",
"-120 120 OFFCURVE",
"-120 120 CURVE SMOOTH",
"-34 120 OFFCURVE",
"34 120 OFFCURVE",
"120 120 CURVE SMOOTH",
"120 120 OFFCURVE",
"120 120 OFFCURVE",
"120 120 CURVE SMOOTH",
"120 34 OFFCURVE",
"120 -34 OFFCURVE",
"120 -120 CURVE SMOOTH",
"120 -120 OFFCURVE",
"120 -120 OFFCURVE",
"120 -120 CURVE SMOOTH"
);
}
);
};
layerId = "21F17980-9185-40A4-B5A3-13BE69C2F7C8";
paths = (
{
closed = 1;
nodes = (
"-87 -89 OFFCURVE",
"-121 -31 OFFCURVE",
"-164 44 CURVE SMOOTH",
"-164 44 OFFCURVE",
"-164 44 OFFCURVE",
"-164 44 CURVE SMOOTH",
"-89 87 OFFCURVE",
"-31 121 OFFCURVE",
"44 164 CURVE SMOOTH",
"44 164 OFFCURVE",
"44 164 OFFCURVE",
"44 164 CURVE SMOOTH",
"87 89 OFFCURVE",
"121 31 OFFCURVE",
"164 -44 CURVE SMOOTH",
"164 -44 OFFCURVE",
"164 -44 OFFCURVE",
"164 -44 CURVE SMOOTH",
"89 -87 OFFCURVE",
"31 -121 OFFCURVE",
"-44 -164 CURVE SMOOTH",
"-44 -164 OFFCURVE",
"-44 -164 OFFCURVE",
"-44 -164 CURVE SMOOTH"
);
}
);
width = 0;
}
);
},
{
color = 6;
export = 0;
glyphname = "SHAP-400";
lastChange = "2020-05-12 15:53:30 +0000";
layers = (
{
background = {
paths = (
{
closed = 1;
nodes = (
"34 -120 OFFCURVE",
"-34 -120 OFFCURVE",
"-120 -120 CURVE SMOOTH",
"-120 -120 OFFCURVE",
"-120 -120 OFFCURVE",
"-120 -120 CURVE SMOOTH",
"-120 -34 OFFCURVE",
"-120 34 OFFCURVE",
"-120 120 CURVE SMOOTH",
"-120 120 OFFCURVE",
"-120 120 OFFCURVE",
"-120 120 CURVE SMOOTH",
"-34 120 OFFCURVE",
"34 120 OFFCURVE",
"120 120 CURVE SMOOTH",
"120 120 OFFCURVE",
"120 120 OFFCURVE",
"120 120 CURVE SMOOTH",
"120 34 OFFCURVE",
"120 -34 OFFCURVE",
"120 -120 CURVE SMOOTH",
"120 -120 OFFCURVE",
"120 -120 OFFCURVE",
"120 -120 CURVE SMOOTH"
);
}
);
};
layerId = "D705B390-3487-4797-B79F-A044C23E058D";
paths = (
{
closed = 1;
nodes = (
"-120 -34 OFFCURVE",
"-120 34 OFFCURVE",
"-120 120 CURVE SMOOTH",
"-120 120 OFFCURVE",
"-120 120 OFFCURVE",
"-120 120 CURVE SMOOTH",
"-34 120 OFFCURVE",
"34 120 OFFCURVE",
"120 120 CURVE SMOOTH",
"120 120 OFFCURVE",
"120 120 OFFCURVE",
"120 120 CURVE SMOOTH",
"120 34 OFFCURVE",
"120 -34 OFFCURVE",
"120 -120 CURVE SMOOTH",
"120 -120 OFFCURVE",
"120 -120 OFFCURVE",
"120 -120 CURVE SMOOTH",
"34 -120 OFFCURVE",
"-34 -120 OFFCURVE",
"-120 -120 CURVE SMOOTH",
"-120 -120 OFFCURVE",
"-120 -120 OFFCURVE",
"-120 -120 CURVE SMOOTH"
);
}
);
width = 0;
},
{
background = {
paths = (
{
closed = 1;
nodes = (
"34 -120 OFFCURVE",
"-34 -120 OFFCURVE",
"-120 -120 CURVE SMOOTH",
"-120 -120 OFFCURVE",
"-120 -120 OFFCURVE",
"-120 -120 CURVE SMOOTH",
"-120 -34 OFFCURVE",
"-120 34 OFFCURVE",
"-120 120 CURVE SMOOTH",
"-120 120 OFFCURVE",
"-120 120 OFFCURVE",
"-120 120 CURVE SMOOTH",
"-34 120 OFFCURVE",
"34 120 OFFCURVE",
"120 120 CURVE SMOOTH",
"120 120 OFFCURVE",
"120 120 OFFCURVE",
"120 120 CURVE SMOOTH",
"120 34 OFFCURVE",
"120 -34 OFFCURVE",
"120 -120 CURVE SMOOTH",
"120 -120 OFFCURVE",
"120 -120 OFFCURVE",
"120 -120 CURVE SMOOTH"
);
}
);
};
layerId = "21F17980-9185-40A4-B5A3-13BE69C2F7C8";
paths = (
{
closed = 1;
nodes = (
"-120 -34 OFFCURVE",
"-120 34 OFFCURVE",
"-120 120 CURVE SMOOTH",
"-120 120 OFFCURVE",
"-120 120 OFFCURVE",
"-120 120 CURVE SMOOTH",
"-34 120 OFFCURVE",
"34 120 OFFCURVE",
"120 120 CURVE SMOOTH",
"120 120 OFFCURVE",
"120 120 OFFCURVE",
"120 120 CURVE SMOOTH",
"120 34 OFFCURVE",
"120 -34 OFFCURVE",
"120 -120 CURVE SMOOTH",
"120 -120 OFFCURVE",
"120 -120 OFFCURVE",
"120 -120 CURVE SMOOTH",
"34 -120 OFFCURVE",
"-34 -120 OFFCURVE",
"-120 -120 CURVE SMOOTH",
"-120 -120 OFFCURVE",
"-120 -120 OFFCURVE",
"-120 -120 CURVE SMOOTH"
);
}
);
width = 0;
}
);
},
{
color = 6;
export = 0;
glyphname = "SHAP-433";
lastChange = "2020-05-12 15:53:30 +0000";
layers = (
{
background = {
paths = (
{
closed = 1;
nodes = (
"34 -120 OFFCURVE",
"-34 -120 OFFCURVE",
"-120 -120 CURVE SMOOTH",
"-120 -120 OFFCURVE",
"-120 -120 OFFCURVE",
"-120 -120 CURVE SMOOTH",
"-120 -34 OFFCURVE",
"-120 34 OFFCURVE",
"-120 120 CURVE SMOOTH",
"-120 120 OFFCURVE",
"-120 120 OFFCURVE",
"-120 120 CURVE SMOOTH",
"-34 120 OFFCURVE",
"34 120 OFFCURVE",
"120 120 CURVE SMOOTH",
"120 120 OFFCURVE",
"120 120 OFFCURVE",
"120 120 CURVE SMOOTH",
"120 34 OFFCURVE",
"120 -34 OFFCURVE",
"120 -120 CURVE SMOOTH",
"120 -120 OFFCURVE",
"120 -120 OFFCURVE",
"120 -120 CURVE SMOOTH"
);
}
);
};
layerId = "D705B390-3487-4797-B79F-A044C23E058D";
paths = (
{
closed = 1;
nodes = (
"-121 31 OFFCURVE",
"-87 89 OFFCURVE",
"-44 164 CURVE SMOOTH",
"-44 164 OFFCURVE",
"-44 164 OFFCURVE",
"-44 164 CURVE SMOOTH",
"31 121 OFFCURVE",
"89 87 OFFCURVE",
"164 44 CURVE SMOOTH",
"164 44 OFFCURVE",
"164 44 OFFCURVE",
"164 44 CURVE SMOOTH",
"121 -31 OFFCURVE",
"87 -89 OFFCURVE",
"44 -164 CURVE SMOOTH",
"44 -164 OFFCURVE",
"44 -164 OFFCURVE",
"44 -164 CURVE SMOOTH",
"-31 -121 OFFCURVE",
"-89 -87 OFFCURVE",
"-164 -44 CURVE SMOOTH",
"-164 -44 OFFCURVE",
"-164 -44 OFFCURVE",
"-164 -44 CURVE SMOOTH"
);
}
);
width = 0;
},
{
background = {
paths = (
{
closed = 1;
nodes = (
"34 -120 OFFCURVE",
"-34 -120 OFFCURVE",
"-120 -120 CURVE SMOOTH",
"-120 -120 OFFCURVE",
"-120 -120 OFFCURVE",
"-120 -120 CURVE SMOOTH",
"-120 -34 OFFCURVE",
"-120 34 OFFCURVE",
"-120 120 CURVE SMOOTH",
"-120 120 OFFCURVE",
"-120 120 OFFCURVE",
"-120 120 CURVE SMOOTH",
"-34 120 OFFCURVE",
"34 120 OFFCURVE",
"120 120 CURVE SMOOTH",
"120 120 OFFCURVE",
"120 120 OFFCURVE",
"120 120 CURVE SMOOTH",
"120 34 OFFCURVE",
"120 -34 OFFCURVE",
"120 -120 CURVE SMOOTH",
"120 -120 OFFCURVE",
"120 -120 OFFCURVE",
"120 -120 CURVE SMOOTH"
);
}
);
};
layerId = "21F17980-9185-40A4-B5A3-13BE69C2F7C8";
paths = (
{
closed = 1;
nodes = (
"-121 31 OFFCURVE",
"-87 89 OFFCURVE",
"-44 164 CURVE SMOOTH",
"-44 164 OFFCURVE",
"-44 164 OFFCURVE",
"-44 164 CURVE SMOOTH",
"31 121 OFFCURVE",
"89 87 OFFCURVE",
"164 44 CURVE SMOOTH",
"164 44 OFFCURVE",
"164 44 OFFCURVE",
"164 44 CURVE SMOOTH",
"121 -31 OFFCURVE",
"87 -89 OFFCURVE",
"44 -164 CURVE SMOOTH",
"44 -164 OFFCURVE",
"44 -164 OFFCURVE",
"44 -164 CURVE SMOOTH",
"-31 -121 OFFCURVE",
"-89 -87 OFFCURVE",
"-164 -44 CURVE SMOOTH",
"-164 -44 OFFCURVE",
"-164 -44 OFFCURVE",
"-164 -44 CURVE SMOOTH"
);
}
);
width = 0;
}
);
},
{
color = 6;
export = 0;
glyphname = "SHAP-466";
lastChange = "2020-05-12 15:53:30 +0000";
layers = (
{
background = {
paths = (
{
closed = 1;
nodes = (
"34 -120 OFFCURVE",
"-34 -120 OFFCURVE",
"-120 -120 CURVE SMOOTH",
"-120 -120 OFFCURVE",
"-120 -120 OFFCURVE",
"-120 -120 CURVE SMOOTH",
"-120 -34 OFFCURVE",
"-120 34 OFFCURVE",
"-120 120 CURVE SMOOTH",
"-120 120 OFFCURVE",
"-120 120 OFFCURVE",
"-120 120 CURVE SMOOTH",
"-34 120 OFFCURVE",
"34 120 OFFCURVE",
"120 120 CURVE SMOOTH",
"120 120 OFFCURVE",
"120 120 OFFCURVE",
"120 120 CURVE SMOOTH",
"120 34 OFFCURVE",
"120 -34 OFFCURVE",
"120 -120 CURVE SMOOTH",
"120 -120 OFFCURVE",
"120 -120 OFFCURVE",
"120 -120 CURVE SMOOTH"
);
}
);
};
layerId = "D705B390-3487-4797-B79F-A044C23E058D";
paths = (
{
closed = 1;
nodes = (
"-89 87 OFFCURVE",
"-31 121 OFFCURVE",
"44 164 CURVE SMOOTH",
"44 164 OFFCURVE",
"44 164 OFFCURVE",
"44 164 CURVE SMOOTH",
"87 89 OFFCURVE",
"121 31 OFFCURVE",
"164 -44 CURVE SMOOTH",
"164 -44 OFFCURVE",
"164 -44 OFFCURVE",
"164 -44 CURVE SMOOTH",
"89 -87 OFFCURVE",
"31 -121 OFFCURVE",
"-44 -164 CURVE SMOOTH",
"-44 -164 OFFCURVE",
"-44 -164 OFFCURVE",
"-44 -164 CURVE SMOOTH",
"-87 -89 OFFCURVE",
"-121 -31 OFFCURVE",
"-164 44 CURVE SMOOTH",
"-164 44 OFFCURVE",
"-164 44 OFFCURVE",
"-164 44 CURVE SMOOTH"
);
}
);
width = 0;
},
{
background = {
paths = (
{
closed = 1;
nodes = (
"34 -120 OFFCURVE",
"-34 -120 OFFCURVE",
"-120 -120 CURVE SMOOTH",
"-120 -120 OFFCURVE",
"-120 -120 OFFCURVE",
"-120 -120 CURVE SMOOTH",
"-120 -34 OFFCURVE",
"-120 34 OFFCURVE",
"-120 120 CURVE SMOOTH",
"-120 120 OFFCURVE",
"-120 120 OFFCURVE",
"-120 120 CURVE SMOOTH",
"-34 120 OFFCURVE",
"34 120 OFFCURVE",
"120 120 CURVE SMOOTH",
"120 120 OFFCURVE",
"120 120 OFFCURVE",
"120 120 CURVE SMOOTH",
"120 34 OFFCURVE",
"120 -34 OFFCURVE",
"120 -120 CURVE SMOOTH",
"120 -120 OFFCURVE",
"120 -120 OFFCURVE",
"120 -120 CURVE SMOOTH"
);
}
);
};
layerId = "21F17980-9185-40A4-B5A3-13BE69C2F7C8";
paths = (
{
closed = 1;
nodes = (
"-89 87 OFFCURVE",
"-31 121 OFFCURVE",
"44 164 CURVE SMOOTH",
"44 164 OFFCURVE",
"44 164 OFFCURVE",
"44 164 CURVE SMOOTH",
"87 89 OFFCURVE",
"121 31 OFFCURVE",
"164 -44 CURVE SMOOTH",
"164 -44 OFFCURVE",
"164 -44 OFFCURVE",
"164 -44 CURVE SMOOTH",
"89 -87 OFFCURVE",
"31 -121 OFFCURVE",
"-44 -164 CURVE SMOOTH",
"-44 -164 OFFCURVE",
"-44 -164 OFFCURVE",
"-44 -164 CURVE SMOOTH",
"-87 -89 OFFCURVE",
"-121 -31 OFFCURVE",
"-164 44 CURVE SMOOTH",
"-164 44 OFFCURVE",
"-164 44 OFFCURVE",
"-164 44 CURVE SMOOTH"
);
}
);
width = 0;
}
);
},
{
color = 6;
export = 0;
glyphname = "SHAP-500";
lastChange = "2020-05-12 15:53:30 +0000";
layers = (
{
background = {
paths = (
{
closed = 1;
nodes = (
"34 -120 OFFCURVE",
"-34 -120 OFFCURVE",
"-120 -120 CURVE SMOOTH",
"-120 -120 OFFCURVE",
"-120 -120 OFFCURVE",
"-120 -120 CURVE SMOOTH",
"-120 -34 OFFCURVE",
"-120 34 OFFCURVE",
"-120 120 CURVE SMOOTH",
"-120 120 OFFCURVE",
"-120 120 OFFCURVE",
"-120 120 CURVE SMOOTH",
"-34 120 OFFCURVE",
"34 120 OFFCURVE",
"120 120 CURVE SMOOTH",
"120 120 OFFCURVE",
"120 120 OFFCURVE",
"120 120 CURVE SMOOTH",
"120 34 OFFCURVE",
"120 -34 OFFCURVE",
"120 -120 CURVE SMOOTH",
"120 -120 OFFCURVE",
"120 -120 OFFCURVE",
"120 -120 CURVE SMOOTH"
);
}
);
};
layerId = "D705B390-3487-4797-B79F-A044C23E058D";
paths = (
{
closed = 1;
nodes = (
"-34 120 OFFCURVE",
"34 120 OFFCURVE",
"120 120 CURVE SMOOTH",
"120 120 OFFCURVE",
"120 120 OFFCURVE",
"120 120 CURVE SMOOTH",
"120 34 OFFCURVE",
"120 -34 OFFCURVE",
"120 -120 CURVE SMOOTH",
"120 -120 OFFCURVE",
"120 -120 OFFCURVE",
"120 -120 CURVE SMOOTH",
"34 -120 OFFCURVE",
"-34 -120 OFFCURVE",
"-120 -120 CURVE SMOOTH",
"-120 -120 OFFCURVE",
"-120 -120 OFFCURVE",
"-120 -120 CURVE SMOOTH",
"-120 -34 OFFCURVE",
"-120 34 OFFCURVE",
"-120 120 CURVE SMOOTH",
"-120 120 OFFCURVE",
"-120 120 OFFCURVE",
"-120 120 CURVE SMOOTH"
);
}
);
width = 0;
},
{
background = {
paths = (
{
closed = 1;
nodes = (
"34 -120 OFFCURVE",
"-34 -120 OFFCURVE",
"-120 -120 CURVE SMOOTH",
"-120 -120 OFFCURVE",
"-120 -120 OFFCURVE",
"-120 -120 CURVE SMOOTH",
"-120 -34 OFFCURVE",
"-120 34 OFFCURVE",
"-120 120 CURVE SMOOTH",
"-120 120 OFFCURVE",
"-120 120 OFFCURVE",
"-120 120 CURVE SMOOTH",
"-34 120 OFFCURVE",
"34 120 OFFCURVE",
"120 120 CURVE SMOOTH",
"120 120 OFFCURVE",
"120 120 OFFCURVE",
"120 120 CURVE SMOOTH",
"120 34 OFFCURVE",
"120 -34 OFFCURVE",
"120 -120 CURVE SMOOTH",
"120 -120 OFFCURVE",
"120 -120 OFFCURVE",
"120 -120 CURVE SMOOTH"
);
}
);
};
layerId = "21F17980-9185-40A4-B5A3-13BE69C2F7C8";
paths = (
{
closed = 1;
nodes = (
"-34 120 OFFCURVE",
"34 120 OFFCURVE",
"120 120 CURVE SMOOTH",
"120 120 OFFCURVE",
"120 120 OFFCURVE",
"120 120 CURVE SMOOTH",
"120 34 OFFCURVE",
"120 -34 OFFCURVE",
"120 -120 CURVE SMOOTH",
"120 -120 OFFCURVE",
"120 -120 OFFCURVE",
"120 -120 CURVE SMOOTH",
"34 -120 OFFCURVE",
"-34 -120 OFFCURVE",
"-120 -120 CURVE SMOOTH",
"-120 -120 OFFCURVE",
"-120 -120 OFFCURVE",
"-120 -120 CURVE SMOOTH",
"-120 -34 OFFCURVE",
"-120 34 OFFCURVE",
"-120 120 CURVE SMOOTH",
"-120 120 OFFCURVE",
"-120 120 OFFCURVE",
"-120 120 CURVE SMOOTH"
);
}
);
width = 0;
}
);
},
{
color = 6;
export = 0;
glyphname = "SHAP-600";
lastChange = "2020-05-12 15:53:30 +0000";
layers = (
{
background = {
paths = (
{
closed = 1;
nodes = (
"34 -120 OFFCURVE",
"-34 -120 OFFCURVE",
"-120 -120 CURVE SMOOTH",
"-120 -120 OFFCURVE",
"-120 -120 OFFCURVE",
"-120 -120 CURVE SMOOTH",
"-120 -34 OFFCURVE",
"-120 34 OFFCURVE",
"-120 120 CURVE SMOOTH",
"-120 120 OFFCURVE",
"-120 120 OFFCURVE",
"-120 120 CURVE SMOOTH",
"-34 120 OFFCURVE",
"34 120 OFFCURVE",
"120 120 CURVE SMOOTH",
"120 120 OFFCURVE",
"120 120 OFFCURVE",
"120 120 CURVE SMOOTH",
"120 34 OFFCURVE",
"120 -34 OFFCURVE",
"120 -120 CURVE SMOOTH",
"120 -120 OFFCURVE",
"120 -120 OFFCURVE",
"120 -120 CURVE SMOOTH"
);
}
);
};
layerId = "D705B390-3487-4797-B79F-A044C23E058D";
paths = (
{
closed = 1;
nodes = (
"-4 120 OFFCURVE",
"4 120 OFFCURVE",
"15 120 CURVE SMOOTH",
"15 120 OFFCURVE",
"15 120 OFFCURVE",
"15 120 CURVE SMOOTH",
"15 34 OFFCURVE",
"15 -34 OFFCURVE",
"15 -120 CURVE SMOOTH",
"15 -120 OFFCURVE",
"15 -120 OFFCURVE",
"15 -120 CURVE SMOOTH",
"4 -120 OFFCURVE",
"-4 -120 OFFCURVE",
"-15 -120 CURVE SMOOTH",
"-15 -120 OFFCURVE",
"-15 -120 OFFCURVE",
"-15 -120 CURVE SMOOTH",
"-15 -34 OFFCURVE",
"-15 34 OFFCURVE",
"-15 120 CURVE SMOOTH",
"-15 120 OFFCURVE",
"-15 120 OFFCURVE",
"-15 120 CURVE SMOOTH"
);
}
);
width = 0;
},
{
background = {
paths = (
{
closed = 1;
nodes = (
"34 -120 OFFCURVE",
"-34 -120 OFFCURVE",
"-120 -120 CURVE SMOOTH",
"-120 -120 OFFCURVE",
"-120 -120 OFFCURVE",
"-120 -120 CURVE SMOOTH",
"-120 -34 OFFCURVE",
"-120 34 OFFCURVE",
"-120 120 CURVE SMOOTH",
"-120 120 OFFCURVE",
"-120 120 OFFCURVE",
"-120 120 CURVE SMOOTH",
"-34 120 OFFCURVE",
"34 120 OFFCURVE",
"120 120 CURVE SMOOTH",
"120 120 OFFCURVE",
"120 120 OFFCURVE",
"120 120 CURVE SMOOTH",
"120 34 OFFCURVE",
"120 -34 OFFCURVE",
"120 -120 CURVE SMOOTH",
"120 -120 OFFCURVE",
"120 -120 OFFCURVE",
"120 -120 CURVE SMOOTH"
);
}
);
};
layerId = "21F17980-9185-40A4-B5A3-13BE69C2F7C8";
paths = (
{
closed = 1;
nodes = (
"-4 120 OFFCURVE",
"4 120 OFFCURVE",
"15 120 CURVE SMOOTH",
"15 120 OFFCURVE",
"15 120 OFFCURVE",
"15 120 CURVE SMOOTH",
"15 34 OFFCURVE",
"15 -34 OFFCURVE",
"15 -120 CURVE SMOOTH",
"15 -120 OFFCURVE",
"15 -120 OFFCURVE",
"15 -120 CURVE SMOOTH",
"4 -120 OFFCURVE",
"-4 -120 OFFCURVE",
"-15 -120 CURVE SMOOTH",
"-15 -120 OFFCURVE",
"-15 -120 OFFCURVE",
"-15 -120 CURVE SMOOTH",
"-15 -34 OFFCURVE",
"-15 34 OFFCURVE",
"-15 120 CURVE SMOOTH",
"-15 120 OFFCURVE",
"-15 120 OFFCURVE",
"-15 120 CURVE SMOOTH"
);
}
);
width = 0;
}
);
},
{
color = 6;
export = 0;
glyphname = "SHAP-633";
lastChange = "2020-05-12 15:53:30 +0000";
layers = (
{
background = {
paths = (
{
closed = 1;
nodes = (
"34 -120 OFFCURVE",
"-34 -120 OFFCURVE",
"-120 -120 CURVE SMOOTH",
"-120 -120 OFFCURVE",
"-120 -120 OFFCURVE",
"-120 -120 CURVE SMOOTH",
"-120 -34 OFFCURVE",
"-120 34 OFFCURVE",
"-120 120 CURVE SMOOTH",
"-120 120 OFFCURVE",
"-120 120 OFFCURVE",
"-120 120 CURVE SMOOTH",
"-34 120 OFFCURVE",
"34 120 OFFCURVE",
"120 120 CURVE SMOOTH",
"120 120 OFFCURVE",
"120 120 OFFCURVE",
"120 120 CURVE SMOOTH",
"120 34 OFFCURVE",
"120 -34 OFFCURVE",
"120 -120 CURVE SMOOTH",
"120 -120 OFFCURVE",
"120 -120 OFFCURVE",
"120 -120 CURVE SMOOTH"
);
}
);
};
layerId = "D705B390-3487-4797-B79F-A044C23E058D";
paths = (
{
closed = 1;
nodes = (
"57 106 OFFCURVE",
"63 102 OFFCURVE",
"73 96 CURVE SMOOTH",
"73 96 OFFCURVE",
"73 96 OFFCURVE",
"73 96 CURVE SMOOTH",
"30 22 OFFCURVE",
"-4 -37 OFFCURVE",
"-47 -111 CURVE SMOOTH",
"-47 -111 OFFCURVE",
"-47 -111 OFFCURVE",
"-47 -111 CURVE SMOOTH",
"-57 -106 OFFCURVE",
"-63 -102 OFFCURVE",
"-73 -96 CURVE SMOOTH",
"-73 -96 OFFCURVE",
"-73 -96 OFFCURVE",
"-73 -96 CURVE SMOOTH",
"-30 -22 OFFCURVE",
"4 37 OFFCURVE",
"47 111 CURVE SMOOTH",
"47 111 OFFCURVE",
"47 111 OFFCURVE",
"47 111 CURVE SMOOTH"
);
}
);
width = 0;
},
{
background = {
paths = (
{
closed = 1;
nodes = (
"34 -120 OFFCURVE",
"-34 -120 OFFCURVE",
"-120 -120 CURVE SMOOTH",
"-120 -120 OFFCURVE",
"-120 -120 OFFCURVE",
"-120 -120 CURVE SMOOTH",
"-120 -34 OFFCURVE",
"-120 34 OFFCURVE",
"-120 120 CURVE SMOOTH",
"-120 120 OFFCURVE",
"-120 120 OFFCURVE",
"-120 120 CURVE SMOOTH",
"-34 120 OFFCURVE",
"34 120 OFFCURVE",
"120 120 CURVE SMOOTH",
"120 120 OFFCURVE",
"120 120 OFFCURVE",
"120 120 CURVE SMOOTH",
"120 34 OFFCURVE",
"120 -34 OFFCURVE",
"120 -120 CURVE SMOOTH",
"120 -120 OFFCURVE",
"120 -120 OFFCURVE",
"120 -120 CURVE SMOOTH"
);
}
);
};
layerId = "21F17980-9185-40A4-B5A3-13BE69C2F7C8";
paths = (
{
closed = 1;
nodes = (
"57 106 OFFCURVE",
"63 102 OFFCURVE",
"73 96 CURVE SMOOTH",
"73 96 OFFCURVE",
"73 96 OFFCURVE",
"73 96 CURVE SMOOTH",
"30 22 OFFCURVE",
"-4 -37 OFFCURVE",
"-47 -111 CURVE SMOOTH",
"-47 -111 OFFCURVE",
"-47 -111 OFFCURVE",
"-47 -111 CURVE SMOOTH",
"-57 -106 OFFCURVE",
"-63 -102 OFFCURVE",
"-73 -96 CURVE SMOOTH",
"-73 -96 OFFCURVE",
"-73 -96 OFFCURVE",
"-73 -96 CURVE SMOOTH",
"-30 -22 OFFCURVE",
"4 37 OFFCURVE",
"47 111 CURVE SMOOTH",
"47 111 OFFCURVE",
"47 111 OFFCURVE",
"47 111 CURVE SMOOTH"
);
}
);
width = 0;
}
);
},
{
color = 6;
export = 0;
glyphname = "SHAP-666";
lastChange = "2020-05-12 15:53:30 +0000";
layers = (
{
background = {
paths = (
{
closed = 1;
nodes = (
"34 -120 OFFCURVE",
"-34 -120 OFFCURVE",
"-120 -120 CURVE SMOOTH",
"-120 -120 OFFCURVE",
"-120 -120 OFFCURVE",
"-120 -120 CURVE SMOOTH",
"-120 -34 OFFCURVE",
"-120 34 OFFCURVE",
"-120 120 CURVE SMOOTH",
"-120 120 OFFCURVE",
"-120 120 OFFCURVE",
"-120 120 CURVE SMOOTH",
"-34 120 OFFCURVE",
"34 120 OFFCURVE",
"120 120 CURVE SMOOTH",
"120 120 OFFCURVE",
"120 120 OFFCURVE",
"120 120 CURVE SMOOTH",
"120 34 OFFCURVE",
"120 -34 OFFCURVE",
"120 -120 CURVE SMOOTH",
"120 -120 OFFCURVE",
"120 -120 OFFCURVE",
"120 -120 CURVE SMOOTH"
);
}
);
};
layerId = "D705B390-3487-4797-B79F-A044C23E058D";
paths = (
{
closed = 1;
nodes = (
"102 63 OFFCURVE",
"106 57 OFFCURVE",
"111 47 CURVE SMOOTH",
"111 47 OFFCURVE",
"111 47 OFFCURVE",
"111 47 CURVE SMOOTH",
"37 4 OFFCURVE",
"-22 -30 OFFCURVE",
"-96 -73 CURVE SMOOTH",
"-96 -73 OFFCURVE",
"-96 -73 OFFCURVE",
"-96 -73 CURVE SMOOTH",
"-102 -63 OFFCURVE",
"-106 -57 OFFCURVE",
"-111 -47 CURVE SMOOTH",
"-111 -47 OFFCURVE",
"-111 -47 OFFCURVE",
"-111 -47 CURVE SMOOTH",
"-37 -4 OFFCURVE",
"22 30 OFFCURVE",
"96 73 CURVE SMOOTH",
"96 73 OFFCURVE",
"96 73 OFFCURVE",
"96 73 CURVE SMOOTH"
);
}
);
width = 0;
},
{
background = {
paths = (
{
closed = 1;
nodes = (
"34 -120 OFFCURVE",
"-34 -120 OFFCURVE",
"-120 -120 CURVE SMOOTH",
"-120 -120 OFFCURVE",
"-120 -120 OFFCURVE",
"-120 -120 CURVE SMOOTH",
"-120 -34 OFFCURVE",
"-120 34 OFFCURVE",
"-120 120 CURVE SMOOTH",
"-120 120 OFFCURVE",
"-120 120 OFFCURVE",
"-120 120 CURVE SMOOTH",
"-34 120 OFFCURVE",
"34 120 OFFCURVE",
"120 120 CURVE SMOOTH",
"120 120 OFFCURVE",
"120 120 OFFCURVE",
"120 120 CURVE SMOOTH",
"120 34 OFFCURVE",
"120 -34 OFFCURVE",
"120 -120 CURVE SMOOTH",
"120 -120 OFFCURVE",
"120 -120 OFFCURVE",
"120 -120 CURVE SMOOTH"
);
}
);
};
layerId = "21F17980-9185-40A4-B5A3-13BE69C2F7C8";
paths = (
{
closed = 1;
nodes = (
"102 63 OFFCURVE",
"106 57 OFFCURVE",
"111 47 CURVE SMOOTH",
"111 47 OFFCURVE",
"111 47 OFFCURVE",
"111 47 CURVE SMOOTH",
"37 4 OFFCURVE",
"-22 -30 OFFCURVE",
"-96 -73 CURVE SMOOTH",
"-96 -73 OFFCURVE",
"-96 -73 OFFCURVE",
"-96 -73 CURVE SMOOTH",
"-102 -63 OFFCURVE",
"-106 -57 OFFCURVE",
"-111 -47 CURVE SMOOTH",
"-111 -47 OFFCURVE",
"-111 -47 OFFCURVE",
"-111 -47 CURVE SMOOTH",
"-37 -4 OFFCURVE",
"22 30 OFFCURVE",
"96 73 CURVE SMOOTH",
"96 73 OFFCURVE",
"96 73 OFFCURVE",
"96 73 CURVE SMOOTH"
);
}
);
width = 0;
}
);
},
{
color = 6;
export = 0;
glyphname = "SHAP-700";
lastChange = "2020-05-12 15:53:30 +0000";
layers = (
{
background = {
paths = (
{
closed = 1;
nodes = (
"34 -120 OFFCURVE",
"-34 -120 OFFCURVE",
"-120 -120 CURVE SMOOTH",
"-120 -120 OFFCURVE",
"-120 -120 OFFCURVE",
"-120 -120 CURVE SMOOTH",
"-120 -34 OFFCURVE",
"-120 34 OFFCURVE",
"-120 120 CURVE SMOOTH",
"-120 120 OFFCURVE",
"-120 120 OFFCURVE",
"-120 120 CURVE SMOOTH",
"-34 120 OFFCURVE",
"34 120 OFFCURVE",
"120 120 CURVE SMOOTH",
"120 120 OFFCURVE",
"120 120 OFFCURVE",
"120 120 CURVE SMOOTH",
"120 34 OFFCURVE",
"120 -34 OFFCURVE",
"120 -120 CURVE SMOOTH",
"120 -120 OFFCURVE",
"120 -120 OFFCURVE",
"120 -120 CURVE SMOOTH"
);
}
);
};
layerId = "D705B390-3487-4797-B79F-A044C23E058D";
paths = (
{
closed = 1;
nodes = (
"120 4 OFFCURVE",
"120 -4 OFFCURVE",
"120 -15 CURVE SMOOTH",
"120 -15 OFFCURVE",
"120 -15 OFFCURVE",
"120 -15 CURVE SMOOTH",
"34 -15 OFFCURVE",
"-34 -15 OFFCURVE",
"-120 -15 CURVE SMOOTH",
"-120 -15 OFFCURVE",
"-120 -15 OFFCURVE",
"-120 -15 CURVE SMOOTH",
"-120 -4 OFFCURVE",
"-120 4 OFFCURVE",
"-120 15 CURVE SMOOTH",
"-120 15 OFFCURVE",
"-120 15 OFFCURVE",
"-120 15 CURVE SMOOTH",
"-34 15 OFFCURVE",
"34 15 OFFCURVE",
"120 15 CURVE SMOOTH",
"120 15 OFFCURVE",
"120 15 OFFCURVE",
"120 15 CURVE SMOOTH"
);
}
);
width = 0;
},
{
background = {
paths = (
{
closed = 1;
nodes = (
"34 -120 OFFCURVE",
"-34 -120 OFFCURVE",
"-120 -120 CURVE SMOOTH",
"-120 -120 OFFCURVE",
"-120 -120 OFFCURVE",
"-120 -120 CURVE SMOOTH",
"-120 -34 OFFCURVE",
"-120 34 OFFCURVE",
"-120 120 CURVE SMOOTH",
"-120 120 OFFCURVE",
"-120 120 OFFCURVE",
"-120 120 CURVE SMOOTH",
"-34 120 OFFCURVE",
"34 120 OFFCURVE",
"120 120 CURVE SMOOTH",
"120 120 OFFCURVE",
"120 120 OFFCURVE",
"120 120 CURVE SMOOTH",
"120 34 OFFCURVE",
"120 -34 OFFCURVE",
"120 -120 CURVE SMOOTH",
"120 -120 OFFCURVE",
"120 -120 OFFCURVE",
"120 -120 CURVE SMOOTH"
);
}
);
};
layerId = "21F17980-9185-40A4-B5A3-13BE69C2F7C8";
paths = (
{
closed = 1;
nodes = (
"120 4 OFFCURVE",
"120 -4 OFFCURVE",
"120 -15 CURVE SMOOTH",
"120 -15 OFFCURVE",
"120 -15 OFFCURVE",
"120 -15 CURVE SMOOTH",
"34 -15 OFFCURVE",
"-34 -15 OFFCURVE",
"-120 -15 CURVE SMOOTH",
"-120 -15 OFFCURVE",
"-120 -15 OFFCURVE",
"-120 -15 CURVE SMOOTH",
"-120 -4 OFFCURVE",
"-120 4 OFFCURVE",
"-120 15 CURVE SMOOTH",
"-120 15 OFFCURVE",
"-120 15 OFFCURVE",
"-120 15 CURVE SMOOTH",
"-34 15 OFFCURVE",
"34 15 OFFCURVE",
"120 15 CURVE SMOOTH",
"120 15 OFFCURVE",
"120 15 OFFCURVE",
"120 15 CURVE SMOOTH"
);
}
);
width = 0;
}
);
},
{
color = 6;
export = 0;
glyphname = "SHAP-733";
lastChange = "2020-05-12 15:53:30 +0000";
layers = (
{
background = {
paths = (
{
closed = 1;
nodes = (
"34 -120 OFFCURVE",
"-34 -120 OFFCURVE",
"-120 -120 CURVE SMOOTH",
"-120 -120 OFFCURVE",
"-120 -120 OFFCURVE",
"-120 -120 CURVE SMOOTH",
"-120 -34 OFFCURVE",
"-120 34 OFFCURVE",
"-120 120 CURVE SMOOTH",
"-120 120 OFFCURVE",
"-120 120 OFFCURVE",
"-120 120 CURVE SMOOTH",
"-34 120 OFFCURVE",
"34 120 OFFCURVE",
"120 120 CURVE SMOOTH",
"120 120 OFFCURVE",
"120 120 OFFCURVE",
"120 120 CURVE SMOOTH",
"120 34 OFFCURVE",
"120 -34 OFFCURVE",
"120 -120 CURVE SMOOTH",
"120 -120 OFFCURVE",
"120 -120 OFFCURVE",
"120 -120 CURVE SMOOTH"
);
}
);
};
layerId = "D705B390-3487-4797-B79F-A044C23E058D";
paths = (
{
closed = 1;
nodes = (
"106 -57 OFFCURVE",
"102 -63 OFFCURVE",
"96 -73 CURVE SMOOTH",
"96 -73 OFFCURVE",
"96 -73 OFFCURVE",
"96 -73 CURVE SMOOTH",
"22 -30 OFFCURVE",
"-37 4 OFFCURVE",
"-111 47 CURVE SMOOTH",
"-111 47 OFFCURVE",
"-111 47 OFFCURVE",
"-111 47 CURVE SMOOTH",
"-106 57 OFFCURVE",
"-102 63 OFFCURVE",
"-96 73 CURVE SMOOTH",
"-96 73 OFFCURVE",
"-96 73 OFFCURVE",
"-96 73 CURVE SMOOTH",
"-22 30 OFFCURVE",
"37 -4 OFFCURVE",
"111 -47 CURVE SMOOTH",
"111 -47 OFFCURVE",
"111 -47 OFFCURVE",
"111 -47 CURVE SMOOTH"
);
}
);
width = 0;
},
{
background = {
paths = (
{
closed = 1;
nodes = (
"34 -120 OFFCURVE",
"-34 -120 OFFCURVE",
"-120 -120 CURVE SMOOTH",
"-120 -120 OFFCURVE",
"-120 -120 OFFCURVE",
"-120 -120 CURVE SMOOTH",
"-120 -34 OFFCURVE",
"-120 34 OFFCURVE",
"-120 120 CURVE SMOOTH",
"-120 120 OFFCURVE",
"-120 120 OFFCURVE",
"-120 120 CURVE SMOOTH",
"-34 120 OFFCURVE",
"34 120 OFFCURVE",
"120 120 CURVE SMOOTH",
"120 120 OFFCURVE",
"120 120 OFFCURVE",
"120 120 CURVE SMOOTH",
"120 34 OFFCURVE",
"120 -34 OFFCURVE",
"120 -120 CURVE SMOOTH",
"120 -120 OFFCURVE",
"120 -120 OFFCURVE",
"120 -120 CURVE SMOOTH"
);
}
);
};
layerId = "21F17980-9185-40A4-B5A3-13BE69C2F7C8";
paths = (
{
closed = 1;
nodes = (
"106 -57 OFFCURVE",
"102 -63 OFFCURVE",
"96 -73 CURVE SMOOTH",
"96 -73 OFFCURVE",
"96 -73 OFFCURVE",
"96 -73 CURVE SMOOTH",
"22 -30 OFFCURVE",
"-37 4 OFFCURVE",
"-111 47 CURVE SMOOTH",
"-111 47 OFFCURVE",
"-111 47 OFFCURVE",
"-111 47 CURVE SMOOTH",
"-106 57 OFFCURVE",
"-102 63 OFFCURVE",
"-96 73 CURVE SMOOTH",
"-96 73 OFFCURVE",
"-96 73 OFFCURVE",
"-96 73 CURVE SMOOTH",
"-22 30 OFFCURVE",
"37 -4 OFFCURVE",
"111 -47 CURVE SMOOTH",
"111 -47 OFFCURVE",
"111 -47 OFFCURVE",
"111 -47 CURVE SMOOTH"
);
}
);
width = 0;
}
);
},
{
color = 6;
export = 0;
glyphname = "SHAP-766";
lastChange = "2020-05-12 15:53:30 +0000";
layers = (
{
background = {
paths = (
{
closed = 1;
nodes = (
"34 -120 OFFCURVE",
"-34 -120 OFFCURVE",
"-120 -120 CURVE SMOOTH",
"-120 -120 OFFCURVE",
"-120 -120 OFFCURVE",
"-120 -120 CURVE SMOOTH",
"-120 -34 OFFCURVE",
"-120 34 OFFCURVE",
"-120 120 CURVE SMOOTH",
"-120 120 OFFCURVE",
"-120 120 OFFCURVE",
"-120 120 CURVE SMOOTH",
"-34 120 OFFCURVE",
"34 120 OFFCURVE",
"120 120 CURVE SMOOTH",
"120 120 OFFCURVE",
"120 120 OFFCURVE",
"120 120 CURVE SMOOTH",
"120 34 OFFCURVE",
"120 -34 OFFCURVE",
"120 -120 CURVE SMOOTH",
"120 -120 OFFCURVE",
"120 -120 OFFCURVE",
"120 -120 CURVE SMOOTH"
);
}
);
};
layerId = "D705B390-3487-4797-B79F-A044C23E058D";
paths = (
{
closed = 1;
nodes = (
"63 -102 OFFCURVE",
"57 -106 OFFCURVE",
"47 -111 CURVE SMOOTH",
"47 -111 OFFCURVE",
"47 -111 OFFCURVE",
"47 -111 CURVE SMOOTH",
"4 -37 OFFCURVE",
"-30 22 OFFCURVE",
"-73 96 CURVE SMOOTH",
"-73 96 OFFCURVE",
"-73 96 OFFCURVE",
"-73 96 CURVE SMOOTH",
"-63 102 OFFCURVE",
"-57 106 OFFCURVE",
"-47 111 CURVE SMOOTH",
"-47 111 OFFCURVE",
"-47 111 OFFCURVE",
"-47 111 CURVE SMOOTH",
"-4 37 OFFCURVE",
"30 -22 OFFCURVE",
"73 -96 CURVE SMOOTH",
"73 -96 OFFCURVE",
"73 -96 OFFCURVE",
"73 -96 CURVE SMOOTH"
);
}
);
width = 0;
},
{
background = {
paths = (
{
closed = 1;
nodes = (
"34 -120 OFFCURVE",
"-34 -120 OFFCURVE",
"-120 -120 CURVE SMOOTH",
"-120 -120 OFFCURVE",
"-120 -120 OFFCURVE",
"-120 -120 CURVE SMOOTH",
"-120 -34 OFFCURVE",
"-120 34 OFFCURVE",
"-120 120 CURVE SMOOTH",
"-120 120 OFFCURVE",
"-120 120 OFFCURVE",
"-120 120 CURVE SMOOTH",
"-34 120 OFFCURVE",
"34 120 OFFCURVE",
"120 120 CURVE SMOOTH",
"120 120 OFFCURVE",
"120 120 OFFCURVE",
"120 120 CURVE SMOOTH",
"120 34 OFFCURVE",
"120 -34 OFFCURVE",
"120 -120 CURVE SMOOTH",
"120 -120 OFFCURVE",
"120 -120 OFFCURVE",
"120 -120 CURVE SMOOTH"
);
}
);
};
layerId = "21F17980-9185-40A4-B5A3-13BE69C2F7C8";
paths = (
{
closed = 1;
nodes = (
"63 -102 OFFCURVE",
"57 -106 OFFCURVE",
"47 -111 CURVE SMOOTH",
"47 -111 OFFCURVE",
"47 -111 OFFCURVE",
"47 -111 CURVE SMOOTH",
"4 -37 OFFCURVE",
"-30 22 OFFCURVE",
"-73 96 CURVE SMOOTH",
"-73 96 OFFCURVE",
"-73 96 OFFCURVE",
"-73 96 CURVE SMOOTH",
"-63 102 OFFCURVE",
"-57 106 OFFCURVE",
"-47 111 CURVE SMOOTH",
"-47 111 OFFCURVE",
"-47 111 OFFCURVE",
"-47 111 CURVE SMOOTH",
"-4 37 OFFCURVE",
"30 -22 OFFCURVE",
"73 -96 CURVE SMOOTH",
"73 -96 OFFCURVE",
"73 -96 OFFCURVE",
"73 -96 CURVE SMOOTH"
);
}
);
width = 0;
}
);
},
{
color = 6;
export = 0;
glyphname = "SHAP-800";
lastChange = "2020-05-12 15:53:30 +0000";
layers = (
{
background = {
paths = (
{
closed = 1;
nodes = (
"34 -120 OFFCURVE",
"-34 -120 OFFCURVE",
"-120 -120 CURVE SMOOTH",
"-120 -120 OFFCURVE",
"-120 -120 OFFCURVE",
"-120 -120 CURVE SMOOTH",
"-120 -34 OFFCURVE",
"-120 34 OFFCURVE",
"-120 120 CURVE SMOOTH",
"-120 120 OFFCURVE",
"-120 120 OFFCURVE",
"-120 120 CURVE SMOOTH",
"-34 120 OFFCURVE",
"34 120 OFFCURVE",
"120 120 CURVE SMOOTH",
"120 120 OFFCURVE",
"120 120 OFFCURVE",
"120 120 CURVE SMOOTH",
"120 34 OFFCURVE",
"120 -34 OFFCURVE",
"120 -120 CURVE SMOOTH",
"120 -120 OFFCURVE",
"120 -120 OFFCURVE",
"120 -120 CURVE SMOOTH"
);
}
);
};
layerId = "D705B390-3487-4797-B79F-A044C23E058D";
paths = (
{
closed = 1;
nodes = (
"4 -120 OFFCURVE",
"-4 -120 OFFCURVE",
"-15 -120 CURVE SMOOTH",
"-15 -120 OFFCURVE",
"-15 -120 OFFCURVE",
"-15 -120 CURVE SMOOTH",
"-15 -34 OFFCURVE",
"-15 34 OFFCURVE",
"-15 120 CURVE SMOOTH",
"-15 120 OFFCURVE",
"-15 120 OFFCURVE",
"-15 120 CURVE SMOOTH",
"-4 120 OFFCURVE",
"4 120 OFFCURVE",
"15 120 CURVE SMOOTH",
"15 120 OFFCURVE",
"15 120 OFFCURVE",
"15 120 CURVE SMOOTH",
"15 34 OFFCURVE",
"15 -34 OFFCURVE",
"15 -120 CURVE SMOOTH",
"15 -120 OFFCURVE",
"15 -120 OFFCURVE",
"15 -120 CURVE SMOOTH"
);
}
);
width = 0;
},
{
background = {
paths = (
{
closed = 1;
nodes = (
"34 -120 OFFCURVE",
"-34 -120 OFFCURVE",
"-120 -120 CURVE SMOOTH",
"-120 -120 OFFCURVE",
"-120 -120 OFFCURVE",
"-120 -120 CURVE SMOOTH",
"-120 -34 OFFCURVE",
"-120 34 OFFCURVE",
"-120 120 CURVE SMOOTH",
"-120 120 OFFCURVE",
"-120 120 OFFCURVE",
"-120 120 CURVE SMOOTH",
"-34 120 OFFCURVE",
"34 120 OFFCURVE",
"120 120 CURVE SMOOTH",
"120 120 OFFCURVE",
"120 120 OFFCURVE",
"120 120 CURVE SMOOTH",
"120 34 OFFCURVE",
"120 -34 OFFCURVE",
"120 -120 CURVE SMOOTH",
"120 -120 OFFCURVE",
"120 -120 OFFCURVE",
"120 -120 CURVE SMOOTH"
);
}
);
};
layerId = "21F17980-9185-40A4-B5A3-13BE69C2F7C8";
paths = (
{
closed = 1;
nodes = (
"4 -120 OFFCURVE",
"-4 -120 OFFCURVE",
"-15 -120 CURVE SMOOTH",
"-15 -120 OFFCURVE",
"-15 -120 OFFCURVE",
"-15 -120 CURVE SMOOTH",
"-15 -34 OFFCURVE",
"-15 34 OFFCURVE",
"-15 120 CURVE SMOOTH",
"-15 120 OFFCURVE",
"-15 120 OFFCURVE",
"-15 120 CURVE SMOOTH",
"-4 120 OFFCURVE",
"4 120 OFFCURVE",
"15 120 CURVE SMOOTH",
"15 120 OFFCURVE",
"15 120 OFFCURVE",
"15 120 CURVE SMOOTH",
"15 34 OFFCURVE",
"15 -34 OFFCURVE",
"15 -120 CURVE SMOOTH",
"15 -120 OFFCURVE",
"15 -120 OFFCURVE",
"15 -120 CURVE SMOOTH"
);
}
);
width = 0;
}
);
},
{
color = 6;
export = 0;
glyphname = "SHAP-900";
lastChange = "2020-05-12 15:53:30 +0000";
layers = (
{
background = {
paths = (
{
closed = 1;
nodes = (
"34 -120 OFFCURVE",
"-34 -120 OFFCURVE",
"-120 -120 CURVE SMOOTH",
"-120 -120 OFFCURVE",
"-120 -120 OFFCURVE",
"-120 -120 CURVE SMOOTH",
"-120 -34 OFFCURVE",
"-120 34 OFFCURVE",
"-120 120 CURVE SMOOTH",
"-120 120 OFFCURVE",
"-120 120 OFFCURVE",
"-120 120 CURVE SMOOTH",
"-34 120 OFFCURVE",
"34 120 OFFCURVE",
"120 120 CURVE SMOOTH",
"120 120 OFFCURVE",
"120 120 OFFCURVE",
"120 120 CURVE SMOOTH",
"120 34 OFFCURVE",
"120 -34 OFFCURVE",
"120 -120 CURVE SMOOTH",
"120 -120 OFFCURVE",
"120 -120 OFFCURVE",
"120 -120 CURVE SMOOTH"
);
}
);
};
layerId = "D705B390-3487-4797-B79F-A044C23E058D";
paths = (
{
closed = 1;
nodes = (
"34 -120 OFFCURVE",
"-34 -120 OFFCURVE",
"-120 -120 CURVE SMOOTH",
"-120 -120 OFFCURVE",
"-120 -120 OFFCURVE",
"-120 -120 CURVE SMOOTH",
"-120 -34 OFFCURVE",
"-120 34 OFFCURVE",
"-120 120 CURVE SMOOTH",
"-120 120 OFFCURVE",
"-120 120 OFFCURVE",
"-120 120 CURVE SMOOTH",
"-34 120 OFFCURVE",
"34 120 OFFCURVE",
"120 120 CURVE SMOOTH",
"120 120 OFFCURVE",
"120 120 OFFCURVE",
"120 120 CURVE SMOOTH",
"120 34 OFFCURVE",
"120 -34 OFFCURVE",
"120 -120 CURVE SMOOTH",
"120 -120 OFFCURVE",
"120 -120 OFFCURVE",
"120 -120 CURVE SMOOTH"
);
}
);
width = 0;
},
{
background = {
paths = (
{
closed = 1;
nodes = (
"34 -120 OFFCURVE",
"-34 -120 OFFCURVE",
"-120 -120 CURVE SMOOTH",
"-120 -120 OFFCURVE",
"-120 -120 OFFCURVE",
"-120 -120 CURVE SMOOTH",
"-120 -34 OFFCURVE",
"-120 34 OFFCURVE",
"-120 120 CURVE SMOOTH",
"-120 120 OFFCURVE",
"-120 120 OFFCURVE",
"-120 120 CURVE SMOOTH",
"-34 120 OFFCURVE",
"34 120 OFFCURVE",
"120 120 CURVE SMOOTH",
"120 120 OFFCURVE",
"120 120 OFFCURVE",
"120 120 CURVE SMOOTH",
"120 34 OFFCURVE",
"120 -34 OFFCURVE",
"120 -120 CURVE SMOOTH",
"120 -120 OFFCURVE",
"120 -120 OFFCURVE",
"120 -120 CURVE SMOOTH"
);
}
);
};
layerId = "21F17980-9185-40A4-B5A3-13BE69C2F7C8";
paths = (
{
closed = 1;
nodes = (
"34 -120 OFFCURVE",
"-34 -120 OFFCURVE",
"-120 -120 CURVE SMOOTH",
"-120 -120 OFFCURVE",
"-120 -120 OFFCURVE",
"-120 -120 CURVE SMOOTH",
"-120 -34 OFFCURVE",
"-120 34 OFFCURVE",
"-120 120 CURVE SMOOTH",
"-120 120 OFFCURVE",
"-120 120 OFFCURVE",
"-120 120 CURVE SMOOTH",
"-34 120 OFFCURVE",
"34 120 OFFCURVE",
"120 120 CURVE SMOOTH",
"120 120 OFFCURVE",
"120 120 OFFCURVE",
"120 120 CURVE SMOOTH",
"120 34 OFFCURVE",
"120 -34 OFFCURVE",
"120 -120 CURVE SMOOTH",
"120 -120 OFFCURVE",
"120 -120 OFFCURVE",
"120 -120 CURVE SMOOTH"
);
}
);
width = 0;
}
);
},
{
color = 6;
export = 0;
glyphname = "SHAP-1000";
lastChange = "2020-05-12 15:53:30 +0000";
layers = (
{
background = {
paths = (
{
closed = 1;
nodes = (
"34 -120 OFFCURVE",
"-34 -120 OFFCURVE",
"-120 -120 CURVE SMOOTH",
"-120 -120 OFFCURVE",
"-120 -120 OFFCURVE",
"-120 -120 CURVE SMOOTH",
"-120 -34 OFFCURVE",
"-120 34 OFFCURVE",
"-120 120 CURVE SMOOTH",
"-120 120 OFFCURVE",
"-120 120 OFFCURVE",
"-120 120 CURVE SMOOTH",
"-34 120 OFFCURVE",
"34 120 OFFCURVE",
"120 120 CURVE SMOOTH",
"120 120 OFFCURVE",
"120 120 OFFCURVE",
"120 120 CURVE SMOOTH",
"120 34 OFFCURVE",
"120 -34 OFFCURVE",
"120 -120 CURVE SMOOTH",
"120 -120 OFFCURVE",
"120 -120 OFFCURVE",
"120 -120 CURVE SMOOTH"
);
}
);
};
layerId = "D705B390-3487-4797-B79F-A044C23E058D";
paths = (
{
closed = 1;
nodes = (
"0 -120 OFFCURVE",
"0 -120 OFFCURVE",
"0 -120 CURVE",
"-66 -120 OFFCURVE",
"-120 -76 OFFCURVE",
"-120 0 CURVE SMOOTH",
"-120 0 OFFCURVE",
"-120 0 OFFCURVE",
"-120 0 CURVE",
"-120 66 OFFCURVE",
"-76 120 OFFCURVE",
"0 120 CURVE SMOOTH",
"0 120 OFFCURVE",
"0 120 OFFCURVE",
"0 120 CURVE",
"76 120 OFFCURVE",
"120 76 OFFCURVE",
"120 0 CURVE SMOOTH",
"120 0 OFFCURVE",
"120 0 OFFCURVE",
"120 0 CURVE",
"120 -66 OFFCURVE",
"76 -120 OFFCURVE",
"0 -120 CURVE SMOOTH"
);
}
);
width = 0;
},
{
background = {
paths = (
{
closed = 1;
nodes = (
"34 -120 OFFCURVE",
"-34 -120 OFFCURVE",
"-120 -120 CURVE SMOOTH",
"-120 -120 OFFCURVE",
"-120 -120 OFFCURVE",
"-120 -120 CURVE SMOOTH",
"-120 -34 OFFCURVE",
"-120 34 OFFCURVE",
"-120 120 CURVE SMOOTH",
"-120 120 OFFCURVE",
"-120 120 OFFCURVE",
"-120 120 CURVE SMOOTH",
"-34 120 OFFCURVE",
"34 120 OFFCURVE",
"120 120 CURVE SMOOTH",
"120 120 OFFCURVE",
"120 120 OFFCURVE",
"120 120 CURVE SMOOTH",
"120 34 OFFCURVE",
"120 -34 OFFCURVE",
"120 -120 CURVE SMOOTH",
"120 -120 OFFCURVE",
"120 -120 OFFCURVE",
"120 -120 CURVE SMOOTH"
);
}
);
};
layerId = "21F17980-9185-40A4-B5A3-13BE69C2F7C8";
paths = (
{
closed = 1;
nodes = (
"0 -120 OFFCURVE",
"0 -120 OFFCURVE",
"0 -120 CURVE",
"-66 -120 OFFCURVE",
"-120 -76 OFFCURVE",
"-120 0 CURVE SMOOTH",
"-120 0 OFFCURVE",
"-120 0 OFFCURVE",
"-120 0 CURVE",
"-120 66 OFFCURVE",
"-76 120 OFFCURVE",
"0 120 CURVE SMOOTH",
"0 120 OFFCURVE",
"0 120 OFFCURVE",
"0 120 CURVE",
"76 120 OFFCURVE",
"120 76 OFFCURVE",
"120 0 CURVE SMOOTH",
"120 0 OFFCURVE",
"120 0 OFFCURVE",
"120 0 CURVE",
"120 -66 OFFCURVE",
"76 -120 OFFCURVE",
"0 -120 CURVE SMOOTH"
);
}
);
width = 0;
}
);
},
{
color = 6;
export = 0;
glyphname = "SHAP-1100";
lastChange = "2020-05-12 15:53:30 +0000";
layers = (
{
background = {
paths = (
{
closed = 1;
nodes = (
"34 -120 OFFCURVE",
"-34 -120 OFFCURVE",
"-120 -120 CURVE SMOOTH",
"-120 -120 OFFCURVE",
"-120 -120 OFFCURVE",
"-120 -120 CURVE SMOOTH",
"-120 -34 OFFCURVE",
"-120 34 OFFCURVE",
"-120 120 CURVE SMOOTH",
"-120 120 OFFCURVE",
"-120 120 OFFCURVE",
"-120 120 CURVE SMOOTH",
"-34 120 OFFCURVE",
"34 120 OFFCURVE",
"120 120 CURVE SMOOTH",
"120 120 OFFCURVE",
"120 120 OFFCURVE",
"120 120 CURVE SMOOTH",
"120 34 OFFCURVE",
"120 -34 OFFCURVE",
"120 -120 CURVE SMOOTH",
"120 -120 OFFCURVE",
"120 -120 OFFCURVE",
"120 -120 CURVE SMOOTH"
);
}
);
};
layerId = "D705B390-3487-4797-B79F-A044C23E058D";
paths = (
{
closed = 1;
nodes = (
"0 -120 OFFCURVE",
"0 -120 OFFCURVE",
"0 -120 CURVE",
"-8 -120 OFFCURVE",
"-12 -76 OFFCURVE",
"-12 0 CURVE SMOOTH",
"-12 0 OFFCURVE",
"-12 0 OFFCURVE",
"-12 0 CURVE",
"-12 66 OFFCURVE",
"-8 120 OFFCURVE",
"0 120 CURVE SMOOTH",
"0 120 OFFCURVE",
"0 120 OFFCURVE",
"0 120 CURVE",
"7 120 OFFCURVE",
"12 76 OFFCURVE",
"12 0 CURVE SMOOTH",
"12 0 OFFCURVE",
"12 0 OFFCURVE",
"12 0 CURVE",
"12 -66 OFFCURVE",
"8 -120 OFFCURVE",
"0 -120 CURVE SMOOTH"
);
}
);
width = 0;
},
{
background = {
paths = (
{
closed = 1;
nodes = (
"34 -120 OFFCURVE",
"-34 -120 OFFCURVE",
"-120 -120 CURVE SMOOTH",
"-120 -120 OFFCURVE",
"-120 -120 OFFCURVE",
"-120 -120 CURVE SMOOTH",
"-120 -34 OFFCURVE",
"-120 34 OFFCURVE",
"-120 120 CURVE SMOOTH",
"-120 120 OFFCURVE",
"-120 120 OFFCURVE",
"-120 120 CURVE SMOOTH",
"-34 120 OFFCURVE",
"34 120 OFFCURVE",
"120 120 CURVE SMOOTH",
"120 120 OFFCURVE",
"120 120 OFFCURVE",
"120 120 CURVE SMOOTH",
"120 34 OFFCURVE",
"120 -34 OFFCURVE",
"120 -120 CURVE SMOOTH",
"120 -120 OFFCURVE",
"120 -120 OFFCURVE",
"120 -120 CURVE SMOOTH"
);
}
);
};
layerId = "21F17980-9185-40A4-B5A3-13BE69C2F7C8";
paths = (
{
closed = 1;
nodes = (
"0 -120 OFFCURVE",
"0 -120 OFFCURVE",
"0 -120 CURVE",
"-8 -120 OFFCURVE",
"-12 -76 OFFCURVE",
"-12 0 CURVE SMOOTH",
"-12 0 OFFCURVE",
"-12 0 OFFCURVE",
"-12 0 CURVE",
"-12 66 OFFCURVE",
"-8 120 OFFCURVE",
"0 120 CURVE SMOOTH",
"0 120 OFFCURVE",
"0 120 OFFCURVE",
"0 120 CURVE",
"7 120 OFFCURVE",
"12 76 OFFCURVE",
"12 0 CURVE SMOOTH",
"12 0 OFFCURVE",
"12 0 OFFCURVE",
"12 0 CURVE",
"12 -66 OFFCURVE",
"8 -120 OFFCURVE",
"0 -120 CURVE SMOOTH"
);
}
);
width = 0;
}
);
},
{
color = 6;
export = 0;
glyphname = "SHAP-1133";
lastChange = "2020-05-12 15:53:30 +0000";
layers = (
{
background = {
paths = (
{
closed = 1;
nodes = (
"34 -120 OFFCURVE",
"-34 -120 OFFCURVE",
"-120 -120 CURVE SMOOTH",
"-120 -120 OFFCURVE",
"-120 -120 OFFCURVE",
"-120 -120 CURVE SMOOTH",
"-120 -34 OFFCURVE",
"-120 34 OFFCURVE",
"-120 120 CURVE SMOOTH",
"-120 120 OFFCURVE",
"-120 120 OFFCURVE",
"-120 120 CURVE SMOOTH",
"-34 120 OFFCURVE",
"34 120 OFFCURVE",
"120 120 CURVE SMOOTH",
"120 120 OFFCURVE",
"120 120 OFFCURVE",
"120 120 CURVE SMOOTH",
"120 34 OFFCURVE",
"120 -34 OFFCURVE",
"120 -120 CURVE SMOOTH",
"120 -120 OFFCURVE",
"120 -120 OFFCURVE",
"120 -120 CURVE SMOOTH"
);
}
);
};
layerId = "D705B390-3487-4797-B79F-A044C23E058D";
paths = (
{
closed = 1;
nodes = (
"-60 -104 OFFCURVE",
"-60 -104 OFFCURVE",
"-60 -104 CURVE",
"-67 -100 OFFCURVE",
"-48 -60 OFFCURVE",
"-10 6 CURVE SMOOTH",
"-10 6 OFFCURVE",
"-10 6 OFFCURVE",
"-10 6 CURVE",
"23 63 OFFCURVE",
"53 108 OFFCURVE",
"60 104 CURVE SMOOTH",
"60 104 OFFCURVE",
"60 104 OFFCURVE",
"60 104 CURVE",
"66 101 OFFCURVE",
"48 60 OFFCURVE",
"10 -6 CURVE SMOOTH",
"10 -6 OFFCURVE",
"10 -6 OFFCURVE",
"10 -6 CURVE",
"-23 -63 OFFCURVE",
"-53 -108 OFFCURVE",
"-60 -104 CURVE SMOOTH"
);
}
);
width = 0;
},
{
background = {
paths = (
{
closed = 1;
nodes = (
"34 -120 OFFCURVE",
"-34 -120 OFFCURVE",
"-120 -120 CURVE SMOOTH",
"-120 -120 OFFCURVE",
"-120 -120 OFFCURVE",
"-120 -120 CURVE SMOOTH",
"-120 -34 OFFCURVE",
"-120 34 OFFCURVE",
"-120 120 CURVE SMOOTH",
"-120 120 OFFCURVE",
"-120 120 OFFCURVE",
"-120 120 CURVE SMOOTH",
"-34 120 OFFCURVE",
"34 120 OFFCURVE",
"120 120 CURVE SMOOTH",
"120 120 OFFCURVE",
"120 120 OFFCURVE",
"120 120 CURVE SMOOTH",
"120 34 OFFCURVE",
"120 -34 OFFCURVE",
"120 -120 CURVE SMOOTH",
"120 -120 OFFCURVE",
"120 -120 OFFCURVE",
"120 -120 CURVE SMOOTH"
);
}
);
};
layerId = "21F17980-9185-40A4-B5A3-13BE69C2F7C8";
paths = (
{
closed = 1;
nodes = (
"-60 -104 OFFCURVE",
"-60 -104 OFFCURVE",
"-60 -104 CURVE",
"-67 -100 OFFCURVE",
"-48 -60 OFFCURVE",
"-10 6 CURVE SMOOTH",
"-10 6 OFFCURVE",
"-10 6 OFFCURVE",
"-10 6 CURVE",
"23 63 OFFCURVE",
"53 108 OFFCURVE",
"60 104 CURVE SMOOTH",
"60 104 OFFCURVE",
"60 104 OFFCURVE",
"60 104 CURVE",
"66 101 OFFCURVE",
"48 60 OFFCURVE",
"10 -6 CURVE SMOOTH",
"10 -6 OFFCURVE",
"10 -6 OFFCURVE",
"10 -6 CURVE",
"-23 -63 OFFCURVE",
"-53 -108 OFFCURVE",
"-60 -104 CURVE SMOOTH"
);
}
);
width = 0;
}
);
},
{
color = 6;
export = 0;
glyphname = "SHAP-1166";
lastChange = "2020-05-12 15:53:30 +0000";
layers = (
{
background = {
paths = (
{
closed = 1;
nodes = (
"34 -120 OFFCURVE",
"-34 -120 OFFCURVE",
"-120 -120 CURVE SMOOTH",
"-120 -120 OFFCURVE",
"-120 -120 OFFCURVE",
"-120 -120 CURVE SMOOTH",
"-120 -34 OFFCURVE",
"-120 34 OFFCURVE",
"-120 120 CURVE SMOOTH",
"-120 120 OFFCURVE",
"-120 120 OFFCURVE",
"-120 120 CURVE SMOOTH",
"-34 120 OFFCURVE",
"34 120 OFFCURVE",
"120 120 CURVE SMOOTH",
"120 120 OFFCURVE",
"120 120 OFFCURVE",
"120 120 CURVE SMOOTH",
"120 34 OFFCURVE",
"120 -34 OFFCURVE",
"120 -120 CURVE SMOOTH",
"120 -120 OFFCURVE",
"120 -120 OFFCURVE",
"120 -120 CURVE SMOOTH"
);
}
);
};
layerId = "D705B390-3487-4797-B79F-A044C23E058D";
paths = (
{
closed = 1;
nodes = (
"-104 -60 OFFCURVE",
"-104 -60 OFFCURVE",
"-104 -60 CURVE",
"-108 -53 OFFCURVE",
"-72 -28 OFFCURVE",
"-6 10 CURVE SMOOTH",
"-6 10 OFFCURVE",
"-6 10 OFFCURVE",
"-6 10 CURVE",
"51 43 OFFCURVE",
"100 67 OFFCURVE",
"104 60 CURVE SMOOTH",
"104 60 OFFCURVE",
"104 60 OFFCURVE",
"104 60 CURVE",
"107 54 OFFCURVE",
"72 28 OFFCURVE",
"6 -10 CURVE SMOOTH",
"6 -10 OFFCURVE",
"6 -10 OFFCURVE",
"6 -10 CURVE",
"-51 -43 OFFCURVE",
"-100 -67 OFFCURVE",
"-104 -60 CURVE SMOOTH"
);
}
);
width = 0;
},
{
background = {
paths = (
{
closed = 1;
nodes = (
"34 -120 OFFCURVE",
"-34 -120 OFFCURVE",
"-120 -120 CURVE SMOOTH",
"-120 -120 OFFCURVE",
"-120 -120 OFFCURVE",
"-120 -120 CURVE SMOOTH",
"-120 -34 OFFCURVE",
"-120 34 OFFCURVE",
"-120 120 CURVE SMOOTH",
"-120 120 OFFCURVE",
"-120 120 OFFCURVE",
"-120 120 CURVE SMOOTH",
"-34 120 OFFCURVE",
"34 120 OFFCURVE",
"120 120 CURVE SMOOTH",
"120 120 OFFCURVE",
"120 120 OFFCURVE",
"120 120 CURVE SMOOTH",
"120 34 OFFCURVE",
"120 -34 OFFCURVE",
"120 -120 CURVE SMOOTH",
"120 -120 OFFCURVE",
"120 -120 OFFCURVE",
"120 -120 CURVE SMOOTH"
);
}
);
};
layerId = "21F17980-9185-40A4-B5A3-13BE69C2F7C8";
paths = (
{
closed = 1;
nodes = (
"-104 -60 OFFCURVE",
"-104 -60 OFFCURVE",
"-104 -60 CURVE",
"-108 -53 OFFCURVE",
"-72 -28 OFFCURVE",
"-6 10 CURVE SMOOTH",
"-6 10 OFFCURVE",
"-6 10 OFFCURVE",
"-6 10 CURVE",
"51 43 OFFCURVE",
"100 67 OFFCURVE",
"104 60 CURVE SMOOTH",
"104 60 OFFCURVE",
"104 60 OFFCURVE",
"104 60 CURVE",
"107 54 OFFCURVE",
"72 28 OFFCURVE",
"6 -10 CURVE SMOOTH",
"6 -10 OFFCURVE",
"6 -10 OFFCURVE",
"6 -10 CURVE",
"-51 -43 OFFCURVE",
"-100 -67 OFFCURVE",
"-104 -60 CURVE SMOOTH"
);
}
);
width = 0;
}
);
},
{
color = 6;
export = 0;
glyphname = "SHAP-1200";
lastChange = "2020-05-12 15:53:30 +0000";
layers = (
{
background = {
paths = (
{
closed = 1;
nodes = (
"34 -120 OFFCURVE",
"-34 -120 OFFCURVE",
"-120 -120 CURVE SMOOTH",
"-120 -120 OFFCURVE",
"-120 -120 OFFCURVE",
"-120 -120 CURVE SMOOTH",
"-120 -34 OFFCURVE",
"-120 34 OFFCURVE",
"-120 120 CURVE SMOOTH",
"-120 120 OFFCURVE",
"-120 120 OFFCURVE",
"-120 120 CURVE SMOOTH",
"-34 120 OFFCURVE",
"34 120 OFFCURVE",
"120 120 CURVE SMOOTH",
"120 120 OFFCURVE",
"120 120 OFFCURVE",
"120 120 CURVE SMOOTH",
"120 34 OFFCURVE",
"120 -34 OFFCURVE",
"120 -120 CURVE SMOOTH",
"120 -120 OFFCURVE",
"120 -120 OFFCURVE",
"120 -120 CURVE SMOOTH"
);
}
);
};
layerId = "D705B390-3487-4797-B79F-A044C23E058D";
paths = (
{
closed = 1;
nodes = (
"-120 0 OFFCURVE",
"-120 0 OFFCURVE",
"-120 0 CURVE",
"-120 8 OFFCURVE",
"-76 12 OFFCURVE",
"0 12 CURVE SMOOTH",
"0 12 OFFCURVE",
"0 12 OFFCURVE",
"0 12 CURVE",
"66 12 OFFCURVE",
"120 8 OFFCURVE",
"120 0 CURVE SMOOTH",
"120 0 OFFCURVE",
"120 0 OFFCURVE",
"120 0 CURVE",
"120 -7 OFFCURVE",
"76 -12 OFFCURVE",
"0 -12 CURVE SMOOTH",
"0 -12 OFFCURVE",
"0 -12 OFFCURVE",
"0 -12 CURVE",
"-66 -12 OFFCURVE",
"-120 -8 OFFCURVE",
"-120 0 CURVE SMOOTH"
);
}
);
width = 0;
},
{
background = {
paths = (
{
closed = 1;
nodes = (
"34 -120 OFFCURVE",
"-34 -120 OFFCURVE",
"-120 -120 CURVE SMOOTH",
"-120 -120 OFFCURVE",
"-120 -120 OFFCURVE",
"-120 -120 CURVE SMOOTH",
"-120 -34 OFFCURVE",
"-120 34 OFFCURVE",
"-120 120 CURVE SMOOTH",
"-120 120 OFFCURVE",
"-120 120 OFFCURVE",
"-120 120 CURVE SMOOTH",
"-34 120 OFFCURVE",
"34 120 OFFCURVE",
"120 120 CURVE SMOOTH",
"120 120 OFFCURVE",
"120 120 OFFCURVE",
"120 120 CURVE SMOOTH",
"120 34 OFFCURVE",
"120 -34 OFFCURVE",
"120 -120 CURVE SMOOTH",
"120 -120 OFFCURVE",
"120 -120 OFFCURVE",
"120 -120 CURVE SMOOTH"
);
}
);
};
layerId = "21F17980-9185-40A4-B5A3-13BE69C2F7C8";
paths = (
{
closed = 1;
nodes = (
"-120 0 OFFCURVE",
"-120 0 OFFCURVE",
"-120 0 CURVE",
"-120 8 OFFCURVE",
"-76 12 OFFCURVE",
"0 12 CURVE SMOOTH",
"0 12 OFFCURVE",
"0 12 OFFCURVE",
"0 12 CURVE",
"66 12 OFFCURVE",
"120 8 OFFCURVE",
"120 0 CURVE SMOOTH",
"120 0 OFFCURVE",
"120 0 OFFCURVE",
"120 0 CURVE",
"120 -7 OFFCURVE",
"76 -12 OFFCURVE",
"0 -12 CURVE SMOOTH",
"0 -12 OFFCURVE",
"0 -12 OFFCURVE",
"0 -12 CURVE",
"-66 -12 OFFCURVE",
"-120 -8 OFFCURVE",
"-120 0 CURVE SMOOTH"
);
}
);
width = 0;
}
);
},
{
color = 6;
export = 0;
glyphname = "SHAP-1233";
lastChange = "2020-05-12 15:53:30 +0000";
layers = (
{
background = {
paths = (
{
closed = 1;
nodes = (
"34 -120 OFFCURVE",
"-34 -120 OFFCURVE",
"-120 -120 CURVE SMOOTH",
"-120 -120 OFFCURVE",
"-120 -120 OFFCURVE",
"-120 -120 CURVE SMOOTH",
"-120 -34 OFFCURVE",
"-120 34 OFFCURVE",
"-120 120 CURVE SMOOTH",
"-120 120 OFFCURVE",
"-120 120 OFFCURVE",
"-120 120 CURVE SMOOTH",
"-34 120 OFFCURVE",
"34 120 OFFCURVE",
"120 120 CURVE SMOOTH",
"120 120 OFFCURVE",
"120 120 OFFCURVE",
"120 120 CURVE SMOOTH",
"120 34 OFFCURVE",
"120 -34 OFFCURVE",
"120 -120 CURVE SMOOTH",
"120 -120 OFFCURVE",
"120 -120 OFFCURVE",
"120 -120 CURVE SMOOTH"
);
}
);
};
layerId = "D705B390-3487-4797-B79F-A044C23E058D";
paths = (
{
closed = 1;
nodes = (
"-104 60 OFFCURVE",
"-104 60 OFFCURVE",
"-104 60 CURVE",
"-100 67 OFFCURVE",
"-60 48 OFFCURVE",
"6 10 CURVE SMOOTH",
"6 10 OFFCURVE",
"6 10 OFFCURVE",
"6 10 CURVE",
"63 -23 OFFCURVE",
"108 -53 OFFCURVE",
"104 -60 CURVE SMOOTH",
"104 -60 OFFCURVE",
"104 -60 OFFCURVE",
"104 -60 CURVE",
"101 -66 OFFCURVE",
"60 -48 OFFCURVE",
"-6 -10 CURVE SMOOTH",
"-6 -10 OFFCURVE",
"-6 -10 OFFCURVE",
"-6 -10 CURVE",
"-63 23 OFFCURVE",
"-108 53 OFFCURVE",
"-104 60 CURVE SMOOTH"
);
}
);
width = 0;
},
{
background = {
paths = (
{
closed = 1;
nodes = (
"34 -120 OFFCURVE",
"-34 -120 OFFCURVE",
"-120 -120 CURVE SMOOTH",
"-120 -120 OFFCURVE",
"-120 -120 OFFCURVE",
"-120 -120 CURVE SMOOTH",
"-120 -34 OFFCURVE",
"-120 34 OFFCURVE",
"-120 120 CURVE SMOOTH",
"-120 120 OFFCURVE",
"-120 120 OFFCURVE",
"-120 120 CURVE SMOOTH",
"-34 120 OFFCURVE",
"34 120 OFFCURVE",
"120 120 CURVE SMOOTH",
"120 120 OFFCURVE",
"120 120 OFFCURVE",
"120 120 CURVE SMOOTH",
"120 34 OFFCURVE",
"120 -34 OFFCURVE",
"120 -120 CURVE SMOOTH",
"120 -120 OFFCURVE",
"120 -120 OFFCURVE",
"120 -120 CURVE SMOOTH"
);
}
);
};
layerId = "21F17980-9185-40A4-B5A3-13BE69C2F7C8";
paths = (
{
closed = 1;
nodes = (
"-104 60 OFFCURVE",
"-104 60 OFFCURVE",
"-104 60 CURVE",
"-100 67 OFFCURVE",
"-60 48 OFFCURVE",
"6 10 CURVE SMOOTH",
"6 10 OFFCURVE",
"6 10 OFFCURVE",
"6 10 CURVE",
"63 -23 OFFCURVE",
"108 -53 OFFCURVE",
"104 -60 CURVE SMOOTH",
"104 -60 OFFCURVE",
"104 -60 OFFCURVE",
"104 -60 CURVE",
"101 -66 OFFCURVE",
"60 -48 OFFCURVE",
"-6 -10 CURVE SMOOTH",
"-6 -10 OFFCURVE",
"-6 -10 OFFCURVE",
"-6 -10 CURVE",
"-63 23 OFFCURVE",
"-108 53 OFFCURVE",
"-104 60 CURVE SMOOTH"
);
}
);
width = 0;
}
);
},
{
color = 6;
export = 0;
glyphname = "SHAP-1266";
lastChange = "2020-05-12 15:53:30 +0000";
layers = (
{
background = {
paths = (
{
closed = 1;
nodes = (
"34 -120 OFFCURVE",
"-34 -120 OFFCURVE",
"-120 -120 CURVE SMOOTH",
"-120 -120 OFFCURVE",
"-120 -120 OFFCURVE",
"-120 -120 CURVE SMOOTH",
"-120 -34 OFFCURVE",
"-120 34 OFFCURVE",
"-120 120 CURVE SMOOTH",
"-120 120 OFFCURVE",
"-120 120 OFFCURVE",
"-120 120 CURVE SMOOTH",
"-34 120 OFFCURVE",
"34 120 OFFCURVE",
"120 120 CURVE SMOOTH",
"120 120 OFFCURVE",
"120 120 OFFCURVE",
"120 120 CURVE SMOOTH",
"120 34 OFFCURVE",
"120 -34 OFFCURVE",
"120 -120 CURVE SMOOTH",
"120 -120 OFFCURVE",
"120 -120 OFFCURVE",
"120 -120 CURVE SMOOTH"
);
}
);
};
layerId = "D705B390-3487-4797-B79F-A044C23E058D";
paths = (
{
closed = 1;
nodes = (
"-60 104 OFFCURVE",
"-60 104 OFFCURVE",
"-60 104 CURVE",
"-54 108 OFFCURVE",
"-28 72 OFFCURVE",
"10 6 CURVE SMOOTH",
"10 6 OFFCURVE",
"10 6 OFFCURVE",
"10 6 CURVE",
"43 -51 OFFCURVE",
"66 -100 OFFCURVE",
"60 -104 CURVE SMOOTH",
"60 -104 OFFCURVE",
"60 -104 OFFCURVE",
"60 -104 CURVE",
"54 -107 OFFCURVE",
"27 -72 OFFCURVE",
"-11 -6 CURVE SMOOTH",
"-11 -6 OFFCURVE",
"-11 -6 OFFCURVE",
"-11 -6 CURVE",
"-44 51 OFFCURVE",
"-67 100 OFFCURVE",
"-60 104 CURVE SMOOTH"
);
}
);
width = 0;
},
{
background = {
paths = (
{
closed = 1;
nodes = (
"34 -120 OFFCURVE",
"-34 -120 OFFCURVE",
"-120 -120 CURVE SMOOTH",
"-120 -120 OFFCURVE",
"-120 -120 OFFCURVE",
"-120 -120 CURVE SMOOTH",
"-120 -34 OFFCURVE",
"-120 34 OFFCURVE",
"-120 120 CURVE SMOOTH",
"-120 120 OFFCURVE",
"-120 120 OFFCURVE",
"-120 120 CURVE SMOOTH",
"-34 120 OFFCURVE",
"34 120 OFFCURVE",
"120 120 CURVE SMOOTH",
"120 120 OFFCURVE",
"120 120 OFFCURVE",
"120 120 CURVE SMOOTH",
"120 34 OFFCURVE",
"120 -34 OFFCURVE",
"120 -120 CURVE SMOOTH",
"120 -120 OFFCURVE",
"120 -120 OFFCURVE",
"120 -120 CURVE SMOOTH"
);
}
);
};
layerId = "21F17980-9185-40A4-B5A3-13BE69C2F7C8";
paths = (
{
closed = 1;
nodes = (
"-60 104 OFFCURVE",
"-60 104 OFFCURVE",
"-60 104 CURVE",
"-54 108 OFFCURVE",
"-28 72 OFFCURVE",
"10 6 CURVE SMOOTH",
"10 6 OFFCURVE",
"10 6 OFFCURVE",
"10 6 CURVE",
"43 -51 OFFCURVE",
"66 -100 OFFCURVE",
"60 -104 CURVE SMOOTH",
"60 -104 OFFCURVE",
"60 -104 OFFCURVE",
"60 -104 CURVE",
"54 -107 OFFCURVE",
"27 -72 OFFCURVE",
"-11 -6 CURVE SMOOTH",
"-11 -6 OFFCURVE",
"-11 -6 OFFCURVE",
"-11 -6 CURVE",
"-44 51 OFFCURVE",
"-67 100 OFFCURVE",
"-60 104 CURVE SMOOTH"
);
}
);
width = 0;
}
);
},
{
color = 6;
export = 0;
glyphname = "SHAP-1300";
lastChange = "2020-05-12 15:53:30 +0000";
layers = (
{
background = {
paths = (
{
closed = 1;
nodes = (
"34 -120 OFFCURVE",
"-34 -120 OFFCURVE",
"-120 -120 CURVE SMOOTH",
"-120 -120 OFFCURVE",
"-120 -120 OFFCURVE",
"-120 -120 CURVE SMOOTH",
"-120 -34 OFFCURVE",
"-120 34 OFFCURVE",
"-120 120 CURVE SMOOTH",
"-120 120 OFFCURVE",
"-120 120 OFFCURVE",
"-120 120 CURVE SMOOTH",
"-34 120 OFFCURVE",
"34 120 OFFCURVE",
"120 120 CURVE SMOOTH",
"120 120 OFFCURVE",
"120 120 OFFCURVE",
"120 120 CURVE SMOOTH",
"120 34 OFFCURVE",
"120 -34 OFFCURVE",
"120 -120 CURVE SMOOTH",
"120 -120 OFFCURVE",
"120 -120 OFFCURVE",
"120 -120 CURVE SMOOTH"
);
}
);
};
layerId = "D705B390-3487-4797-B79F-A044C23E058D";
paths = (
{
closed = 1;
nodes = (
"0 120 OFFCURVE",
"0 120 OFFCURVE",
"0 120 CURVE",
"8 120 OFFCURVE",
"12 76 OFFCURVE",
"12 0 CURVE SMOOTH",
"12 0 OFFCURVE",
"12 0 OFFCURVE",
"12 0 CURVE",
"12 -66 OFFCURVE",
"8 -120 OFFCURVE",
"0 -120 CURVE SMOOTH",
"0 -120 OFFCURVE",
"0 -120 OFFCURVE",
"0 -120 CURVE",
"-7 -120 OFFCURVE",
"-12 -76 OFFCURVE",
"-12 0 CURVE SMOOTH",
"-12 0 OFFCURVE",
"-12 0 OFFCURVE",
"-12 0 CURVE",
"-12 66 OFFCURVE",
"-8 120 OFFCURVE",
"0 120 CURVE SMOOTH"
);
}
);
width = 0;
},
{
background = {
paths = (
{
closed = 1;
nodes = (
"34 -120 OFFCURVE",
"-34 -120 OFFCURVE",
"-120 -120 CURVE SMOOTH",
"-120 -120 OFFCURVE",
"-120 -120 OFFCURVE",
"-120 -120 CURVE SMOOTH",
"-120 -34 OFFCURVE",
"-120 34 OFFCURVE",
"-120 120 CURVE SMOOTH",
"-120 120 OFFCURVE",
"-120 120 OFFCURVE",
"-120 120 CURVE SMOOTH",
"-34 120 OFFCURVE",
"34 120 OFFCURVE",
"120 120 CURVE SMOOTH",
"120 120 OFFCURVE",
"120 120 OFFCURVE",
"120 120 CURVE SMOOTH",
"120 34 OFFCURVE",
"120 -34 OFFCURVE",
"120 -120 CURVE SMOOTH",
"120 -120 OFFCURVE",
"120 -120 OFFCURVE",
"120 -120 CURVE SMOOTH"
);
}
);
};
layerId = "21F17980-9185-40A4-B5A3-13BE69C2F7C8";
paths = (
{
closed = 1;
nodes = (
"0 120 OFFCURVE",
"0 120 OFFCURVE",
"0 120 CURVE",
"8 120 OFFCURVE",
"12 76 OFFCURVE",
"12 0 CURVE SMOOTH",
"12 0 OFFCURVE",
"12 0 OFFCURVE",
"12 0 CURVE",
"12 -66 OFFCURVE",
"8 -120 OFFCURVE",
"0 -120 CURVE SMOOTH",
"0 -120 OFFCURVE",
"0 -120 OFFCURVE",
"0 -120 CURVE",
"-7 -120 OFFCURVE",
"-12 -76 OFFCURVE",
"-12 0 CURVE SMOOTH",
"-12 0 OFFCURVE",
"-12 0 OFFCURVE",
"-12 0 CURVE",
"-12 66 OFFCURVE",
"-8 120 OFFCURVE",
"0 120 CURVE SMOOTH"
);
}
);
width = 0;
}
);
},
{
color = 6;
export = 0;
glyphname = "SHAP-1400";
lastChange = "2020-05-12 15:53:30 +0000";
layers = (
{
background = {
paths = (
{
closed = 1;
nodes = (
"34 -120 OFFCURVE",
"-34 -120 OFFCURVE",
"-120 -120 CURVE SMOOTH",
"-120 -120 OFFCURVE",
"-120 -120 OFFCURVE",
"-120 -120 CURVE SMOOTH",
"-120 -34 OFFCURVE",
"-120 34 OFFCURVE",
"-120 120 CURVE SMOOTH",
"-120 120 OFFCURVE",
"-120 120 OFFCURVE",
"-120 120 CURVE SMOOTH",
"-34 120 OFFCURVE",
"34 120 OFFCURVE",
"120 120 CURVE SMOOTH",
"120 120 OFFCURVE",
"120 120 OFFCURVE",
"120 120 CURVE SMOOTH",
"120 34 OFFCURVE",
"120 -34 OFFCURVE",
"120 -120 CURVE SMOOTH",
"120 -120 OFFCURVE",
"120 -120 OFFCURVE",
"120 -120 CURVE SMOOTH"
);
}
);
};
layerId = "D705B390-3487-4797-B79F-A044C23E058D";
paths = (
{
closed = 1;
nodes = (
"0 120 OFFCURVE",
"0 120 OFFCURVE",
"0 120 CURVE",
"66 120 OFFCURVE",
"120 76 OFFCURVE",
"120 0 CURVE SMOOTH",
"120 0 OFFCURVE",
"120 0 OFFCURVE",
"120 0 CURVE",
"120 -66 OFFCURVE",
"76 -120 OFFCURVE",
"0 -120 CURVE SMOOTH",
"0 -120 OFFCURVE",
"0 -120 OFFCURVE",
"0 -120 CURVE",
"-76 -120 OFFCURVE",
"-120 -76 OFFCURVE",
"-120 0 CURVE SMOOTH",
"-120 0 OFFCURVE",
"-120 0 OFFCURVE",
"-120 0 CURVE",
"-120 66 OFFCURVE",
"-76 120 OFFCURVE",
"0 120 CURVE SMOOTH"
);
}
);
width = 0;
},
{
background = {
paths = (
{
closed = 1;
nodes = (
"34 -120 OFFCURVE",
"-34 -120 OFFCURVE",
"-120 -120 CURVE SMOOTH",
"-120 -120 OFFCURVE",
"-120 -120 OFFCURVE",
"-120 -120 CURVE SMOOTH",
"-120 -34 OFFCURVE",
"-120 34 OFFCURVE",
"-120 120 CURVE SMOOTH",
"-120 120 OFFCURVE",
"-120 120 OFFCURVE",
"-120 120 CURVE SMOOTH",
"-34 120 OFFCURVE",
"34 120 OFFCURVE",
"120 120 CURVE SMOOTH",
"120 120 OFFCURVE",
"120 120 OFFCURVE",
"120 120 CURVE SMOOTH",
"120 34 OFFCURVE",
"120 -34 OFFCURVE",
"120 -120 CURVE SMOOTH",
"120 -120 OFFCURVE",
"120 -120 OFFCURVE",
"120 -120 CURVE SMOOTH"
);
}
);
};
layerId = "21F17980-9185-40A4-B5A3-13BE69C2F7C8";
paths = (
{
closed = 1;
nodes = (
"0 120 OFFCURVE",
"0 120 OFFCURVE",
"0 120 CURVE",
"66 120 OFFCURVE",
"120 76 OFFCURVE",
"120 0 CURVE SMOOTH",
"120 0 OFFCURVE",
"120 0 OFFCURVE",
"120 0 CURVE",
"120 -66 OFFCURVE",
"76 -120 OFFCURVE",
"0 -120 CURVE SMOOTH",
"0 -120 OFFCURVE",
"0 -120 OFFCURVE",
"0 -120 CURVE",
"-76 -120 OFFCURVE",
"-120 -76 OFFCURVE",
"-120 0 CURVE SMOOTH",
"-120 0 OFFCURVE",
"-120 0 OFFCURVE",
"-120 0 CURVE",
"-120 66 OFFCURVE",
"-76 120 OFFCURVE",
"0 120 CURVE SMOOTH"
);
}
);
width = 0;
}
);
},
{
color = 6;
export = 0;
glyphname = "SHAP-1500";
lastChange = "2020-05-12 15:53:30 +0000";
layers = (
{
background = {
paths = (
{
closed = 1;
nodes = (
"34 -120 OFFCURVE",
"-34 -120 OFFCURVE",
"-120 -120 CURVE SMOOTH",
"-120 -120 OFFCURVE",
"-120 -120 OFFCURVE",
"-120 -120 CURVE SMOOTH",
"-120 -34 OFFCURVE",
"-120 34 OFFCURVE",
"-120 120 CURVE SMOOTH",
"-120 120 OFFCURVE",
"-120 120 OFFCURVE",
"-120 120 CURVE SMOOTH",
"-34 120 OFFCURVE",
"34 120 OFFCURVE",
"120 120 CURVE SMOOTH",
"120 120 OFFCURVE",
"120 120 OFFCURVE",
"120 120 CURVE SMOOTH",
"120 34 OFFCURVE",
"120 -34 OFFCURVE",
"120 -120 CURVE SMOOTH",
"120 -120 OFFCURVE",
"120 -120 OFFCURVE",
"120 -120 CURVE SMOOTH"
);
}
);
};
layerId = "D705B390-3487-4797-B79F-A044C23E058D";
paths = (
{
closed = 1;
nodes = (
"0 3 OFFCURVE",
"1 3 OFFCURVE",
"1 3 CURVE",
"1 267 OFFCURVE",
"267 0 OFFCURVE",
"3 0 CURVE",
"3 0 OFFCURVE",
"3 -1 OFFCURVE",
"3 -1 CURVE",
"267 -1 OFFCURVE",
"0 -267 OFFCURVE",
"0 -3 CURVE",
"0 -3 OFFCURVE",
"-1 -3 OFFCURVE",
"-1 -3 CURVE",
"-1 -267 OFFCURVE",
"-267 0 OFFCURVE",
"-3 0 CURVE",
"-3 0 OFFCURVE",
"-3 1 OFFCURVE",
"-3 1 CURVE",
"-267 1 OFFCURVE",
"0 267 OFFCURVE",
"0 3 CURVE"
);
}
);
width = 0;
},
{
background = {
paths = (
{
closed = 1;
nodes = (
"34 -120 OFFCURVE",
"-34 -120 OFFCURVE",
"-120 -120 CURVE SMOOTH",
"-120 -120 OFFCURVE",
"-120 -120 OFFCURVE",
"-120 -120 CURVE SMOOTH",
"-120 -34 OFFCURVE",
"-120 34 OFFCURVE",
"-120 120 CURVE SMOOTH",
"-120 120 OFFCURVE",
"-120 120 OFFCURVE",
"-120 120 CURVE SMOOTH",
"-34 120 OFFCURVE",
"34 120 OFFCURVE",
"120 120 CURVE SMOOTH",
"120 120 OFFCURVE",
"120 120 OFFCURVE",
"120 120 CURVE SMOOTH",
"120 34 OFFCURVE",
"120 -34 OFFCURVE",
"120 -120 CURVE SMOOTH",
"120 -120 OFFCURVE",
"120 -120 OFFCURVE",
"120 -120 CURVE SMOOTH"
);
}
);
};
layerId = "21F17980-9185-40A4-B5A3-13BE69C2F7C8";
paths = (
{
closed = 1;
nodes = (
"0 3 OFFCURVE",
"1 3 OFFCURVE",
"1 3 CURVE",
"1 267 OFFCURVE",
"267 0 OFFCURVE",
"3 0 CURVE",
"3 0 OFFCURVE",
"3 -1 OFFCURVE",
"3 -1 CURVE",
"267 -1 OFFCURVE",
"0 -267 OFFCURVE",
"0 -3 CURVE",
"0 -3 OFFCURVE",
"-1 -3 OFFCURVE",
"-1 -3 CURVE",
"-1 -267 OFFCURVE",
"-267 0 OFFCURVE",
"-3 0 CURVE",
"-3 0 OFFCURVE",
"-3 1 OFFCURVE",
"-3 1 CURVE",
"-267 1 OFFCURVE",
"0 267 OFFCURVE",
"0 3 CURVE"
);
}
);
width = 0;
}
);
},
{
color = 6;
export = 0;
glyphname = "SHAP-1600";
lastChange = "2020-05-12 15:53:30 +0000";
layers = (
{
background = {
paths = (
{
closed = 1;
nodes = (
"34 -120 OFFCURVE",
"-34 -120 OFFCURVE",
"-120 -120 CURVE SMOOTH",
"-120 -120 OFFCURVE",
"-120 -120 OFFCURVE",
"-120 -120 CURVE SMOOTH",
"-120 -34 OFFCURVE",
"-120 34 OFFCURVE",
"-120 120 CURVE SMOOTH",
"-120 120 OFFCURVE",
"-120 120 OFFCURVE",
"-120 120 CURVE SMOOTH",
"-34 120 OFFCURVE",
"34 120 OFFCURVE",
"120 120 CURVE SMOOTH",
"120 120 OFFCURVE",
"120 120 OFFCURVE",
"120 120 CURVE SMOOTH",
"120 34 OFFCURVE",
"120 -34 OFFCURVE",
"120 -120 CURVE SMOOTH",
"120 -120 OFFCURVE",
"120 -120 OFFCURVE",
"120 -120 CURVE SMOOTH"
);
}
);
};
layerId = "D705B390-3487-4797-B79F-A044C23E058D";
paths = (
{
closed = 1;
nodes = (
"0 120 OFFCURVE",
"1 120 OFFCURVE",
"1 120 CURVE",
"0 0 OFFCURVE",
"0 0 OFFCURVE",
"120 0 CURVE",
"120 0 OFFCURVE",
"120 -1 OFFCURVE",
"120 -1 CURVE",
"0 0 OFFCURVE",
"0 0 OFFCURVE",
"0 -120 CURVE",
"0 -120 OFFCURVE",
"-1 -120 OFFCURVE",
"-1 -120 CURVE",
"0 0 OFFCURVE",
"0 0 OFFCURVE",
"-120 0 CURVE",
"-120 0 OFFCURVE",
"-120 1 OFFCURVE",
"-120 1 CURVE",
"0 0 OFFCURVE",
"0 0 OFFCURVE",
"0 120 CURVE"
);
}
);
width = 0;
},
{
background = {
paths = (
{
closed = 1;
nodes = (
"34 -120 OFFCURVE",
"-34 -120 OFFCURVE",
"-120 -120 CURVE SMOOTH",
"-120 -120 OFFCURVE",
"-120 -120 OFFCURVE",
"-120 -120 CURVE SMOOTH",
"-120 -34 OFFCURVE",
"-120 34 OFFCURVE",
"-120 120 CURVE SMOOTH",
"-120 120 OFFCURVE",
"-120 120 OFFCURVE",
"-120 120 CURVE SMOOTH",
"-34 120 OFFCURVE",
"34 120 OFFCURVE",
"120 120 CURVE SMOOTH",
"120 120 OFFCURVE",
"120 120 OFFCURVE",
"120 120 CURVE SMOOTH",
"120 34 OFFCURVE",
"120 -34 OFFCURVE",
"120 -120 CURVE SMOOTH",
"120 -120 OFFCURVE",
"120 -120 OFFCURVE",
"120 -120 CURVE SMOOTH"
);
}
);
};
layerId = "21F17980-9185-40A4-B5A3-13BE69C2F7C8";
paths = (
{
closed = 1;
nodes = (
"0 120 OFFCURVE",
"1 120 OFFCURVE",
"1 120 CURVE",
"0 0 OFFCURVE",
"0 0 OFFCURVE",
"120 0 CURVE",
"120 0 OFFCURVE",
"120 -1 OFFCURVE",
"120 -1 CURVE",
"0 0 OFFCURVE",
"0 0 OFFCURVE",
"0 -120 CURVE",
"0 -120 OFFCURVE",
"-1 -120 OFFCURVE",
"-1 -120 CURVE",
"0 0 OFFCURVE",
"0 0 OFFCURVE",
"-120 0 CURVE",
"-120 0 OFFCURVE",
"-120 1 OFFCURVE",
"-120 1 CURVE",
"0 0 OFFCURVE",
"0 0 OFFCURVE",
"0 120 CURVE"
);
}
);
width = 0;
}
);
},
{
color = 6;
export = 0;
glyphname = "SHAP-1633";
lastChange = "2020-05-12 15:53:30 +0000";
layers = (
{
background = {
paths = (
{
closed = 1;
nodes = (
"34 -120 OFFCURVE",
"-34 -120 OFFCURVE",
"-120 -120 CURVE SMOOTH",
"-120 -120 OFFCURVE",
"-120 -120 OFFCURVE",
"-120 -120 CURVE SMOOTH",
"-120 -34 OFFCURVE",
"-120 34 OFFCURVE",
"-120 120 CURVE SMOOTH",
"-120 120 OFFCURVE",
"-120 120 OFFCURVE",
"-120 120 CURVE SMOOTH",
"-34 120 OFFCURVE",
"34 120 OFFCURVE",
"120 120 CURVE SMOOTH",
"120 120 OFFCURVE",
"120 120 OFFCURVE",
"120 120 CURVE SMOOTH",
"120 34 OFFCURVE",
"120 -34 OFFCURVE",
"120 -120 CURVE SMOOTH",
"120 -120 OFFCURVE",
"120 -120 OFFCURVE",
"120 -120 CURVE SMOOTH"
);
}
);
};
layerId = "D705B390-3487-4797-B79F-A044C23E058D";
paths = (
{
closed = 1;
nodes = (
"60 104 OFFCURVE",
"61 103 OFFCURVE",
"61 103 CURVE",
"0 0 OFFCURVE",
"0 0 OFFCURVE",
"104 -60 CURVE",
"104 -60 OFFCURVE",
"103 -61 OFFCURVE",
"103 -61 CURVE",
"0 0 OFFCURVE",
"0 0 OFFCURVE",
"-60 -104 CURVE",
"-60 -104 OFFCURVE",
"-61 -103 OFFCURVE",
"-61 -103 CURVE",
"0 0 OFFCURVE",
"0 0 OFFCURVE",
"-104 60 CURVE",
"-104 60 OFFCURVE",
"-103 61 OFFCURVE",
"-103 61 CURVE",
"0 0 OFFCURVE",
"0 0 OFFCURVE",
"60 104 CURVE"
);
}
);
width = 0;
},
{
background = {
paths = (
{
closed = 1;
nodes = (
"34 -120 OFFCURVE",
"-34 -120 OFFCURVE",
"-120 -120 CURVE SMOOTH",
"-120 -120 OFFCURVE",
"-120 -120 OFFCURVE",
"-120 -120 CURVE SMOOTH",
"-120 -34 OFFCURVE",
"-120 34 OFFCURVE",
"-120 120 CURVE SMOOTH",
"-120 120 OFFCURVE",
"-120 120 OFFCURVE",
"-120 120 CURVE SMOOTH",
"-34 120 OFFCURVE",
"34 120 OFFCURVE",
"120 120 CURVE SMOOTH",
"120 120 OFFCURVE",
"120 120 OFFCURVE",
"120 120 CURVE SMOOTH",
"120 34 OFFCURVE",
"120 -34 OFFCURVE",
"120 -120 CURVE SMOOTH",
"120 -120 OFFCURVE",
"120 -120 OFFCURVE",
"120 -120 CURVE SMOOTH"
);
}
);
};
layerId = "21F17980-9185-40A4-B5A3-13BE69C2F7C8";
paths = (
{
closed = 1;
nodes = (
"60 104 OFFCURVE",
"61 103 OFFCURVE",
"61 103 CURVE",
"0 0 OFFCURVE",
"0 0 OFFCURVE",
"104 -60 CURVE",
"104 -60 OFFCURVE",
"103 -61 OFFCURVE",
"103 -61 CURVE",
"0 0 OFFCURVE",
"0 0 OFFCURVE",
"-60 -104 CURVE",
"-60 -104 OFFCURVE",
"-61 -103 OFFCURVE",
"-61 -103 CURVE",
"0 0 OFFCURVE",
"0 0 OFFCURVE",
"-104 60 CURVE",
"-104 60 OFFCURVE",
"-103 61 OFFCURVE",
"-103 61 CURVE",
"0 0 OFFCURVE",
"0 0 OFFCURVE",
"60 104 CURVE"
);
}
);
width = 0;
}
);
},
{
color = 6;
export = 0;
glyphname = "SHAP-1666";
lastChange = "2020-05-12 15:53:30 +0000";
layers = (
{
background = {
paths = (
{
closed = 1;
nodes = (
"34 -120 OFFCURVE",
"-34 -120 OFFCURVE",
"-120 -120 CURVE SMOOTH",
"-120 -120 OFFCURVE",
"-120 -120 OFFCURVE",
"-120 -120 CURVE SMOOTH",
"-120 -34 OFFCURVE",
"-120 34 OFFCURVE",
"-120 120 CURVE SMOOTH",
"-120 120 OFFCURVE",
"-120 120 OFFCURVE",
"-120 120 CURVE SMOOTH",
"-34 120 OFFCURVE",
"34 120 OFFCURVE",
"120 120 CURVE SMOOTH",
"120 120 OFFCURVE",
"120 120 OFFCURVE",
"120 120 CURVE SMOOTH",
"120 34 OFFCURVE",
"120 -34 OFFCURVE",
"120 -120 CURVE SMOOTH",
"120 -120 OFFCURVE",
"120 -120 OFFCURVE",
"120 -120 CURVE SMOOTH"
);
}
);
};
layerId = "D705B390-3487-4797-B79F-A044C23E058D";
paths = (
{
closed = 1;
nodes = (
"104 60 OFFCURVE",
"104 59 OFFCURVE",
"104 59 CURVE",
"0 0 OFFCURVE",
"0 0 OFFCURVE",
"60 -104 CURVE",
"60 -104 OFFCURVE",
"59 -104 OFFCURVE",
"59 -104 CURVE",
"0 0 OFFCURVE",
"0 0 OFFCURVE",
"-104 -60 CURVE",
"-104 -60 OFFCURVE",
"-104 -59 OFFCURVE",
"-104 -59 CURVE",
"0 0 OFFCURVE",
"0 0 OFFCURVE",
"-60 104 CURVE",
"-60 104 OFFCURVE",
"-59 104 OFFCURVE",
"-59 104 CURVE",
"0 0 OFFCURVE",
"0 0 OFFCURVE",
"104 60 CURVE"
);
}
);
width = 0;
},
{
background = {
paths = (
{
closed = 1;
nodes = (
"34 -120 OFFCURVE",
"-34 -120 OFFCURVE",
"-120 -120 CURVE SMOOTH",
"-120 -120 OFFCURVE",
"-120 -120 OFFCURVE",
"-120 -120 CURVE SMOOTH",
"-120 -34 OFFCURVE",
"-120 34 OFFCURVE",
"-120 120 CURVE SMOOTH",
"-120 120 OFFCURVE",
"-120 120 OFFCURVE",
"-120 120 CURVE SMOOTH",
"-34 120 OFFCURVE",
"34 120 OFFCURVE",
"120 120 CURVE SMOOTH",
"120 120 OFFCURVE",
"120 120 OFFCURVE",
"120 120 CURVE SMOOTH",
"120 34 OFFCURVE",
"120 -34 OFFCURVE",
"120 -120 CURVE SMOOTH",
"120 -120 OFFCURVE",
"120 -120 OFFCURVE",
"120 -120 CURVE SMOOTH"
);
}
);
};
layerId = "21F17980-9185-40A4-B5A3-13BE69C2F7C8";
paths = (
{
closed = 1;
nodes = (
"104 60 OFFCURVE",
"104 59 OFFCURVE",
"104 59 CURVE",
"0 0 OFFCURVE",
"0 0 OFFCURVE",
"60 -104 CURVE",
"60 -104 OFFCURVE",
"59 -104 OFFCURVE",
"59 -104 CURVE",
"0 0 OFFCURVE",
"0 0 OFFCURVE",
"-104 -60 CURVE",
"-104 -60 OFFCURVE",
"-104 -59 OFFCURVE",
"-104 -59 CURVE",
"0 0 OFFCURVE",
"0 0 OFFCURVE",
"-60 104 CURVE",
"-60 104 OFFCURVE",
"-59 104 OFFCURVE",
"-59 104 CURVE",
"0 0 OFFCURVE",
"0 0 OFFCURVE",
"104 60 CURVE"
);
}
);
width = 0;
}
);
},
{
color = 6;
export = 0;
glyphname = "SHAP-1700";
lastChange = "2020-05-12 15:53:30 +0000";
layers = (
{
background = {
paths = (
{
closed = 1;
nodes = (
"34 -120 OFFCURVE",
"-34 -120 OFFCURVE",
"-120 -120 CURVE SMOOTH",
"-120 -120 OFFCURVE",
"-120 -120 OFFCURVE",
"-120 -120 CURVE SMOOTH",
"-120 -34 OFFCURVE",
"-120 34 OFFCURVE",
"-120 120 CURVE SMOOTH",
"-120 120 OFFCURVE",
"-120 120 OFFCURVE",
"-120 120 CURVE SMOOTH",
"-34 120 OFFCURVE",
"34 120 OFFCURVE",
"120 120 CURVE SMOOTH",
"120 120 OFFCURVE",
"120 120 OFFCURVE",
"120 120 CURVE SMOOTH",
"120 34 OFFCURVE",
"120 -34 OFFCURVE",
"120 -120 CURVE SMOOTH",
"120 -120 OFFCURVE",
"120 -120 OFFCURVE",
"120 -120 CURVE SMOOTH"
);
}
);
};
layerId = "D705B390-3487-4797-B79F-A044C23E058D";
paths = (
{
closed = 1;
nodes = (
"120 0 OFFCURVE",
"120 -1 OFFCURVE",
"120 -1 CURVE",
"0 0 OFFCURVE",
"0 0 OFFCURVE",
"0 -120 CURVE",
"0 -120 OFFCURVE",
"-1 -120 OFFCURVE",
"-1 -120 CURVE",
"0 0 OFFCURVE",
"0 0 OFFCURVE",
"-120 0 CURVE",
"-120 0 OFFCURVE",
"-120 1 OFFCURVE",
"-120 1 CURVE",
"0 0 OFFCURVE",
"0 0 OFFCURVE",
"0 120 CURVE",
"0 120 OFFCURVE",
"1 120 OFFCURVE",
"1 120 CURVE",
"0 0 OFFCURVE",
"0 0 OFFCURVE",
"120 0 CURVE"
);
}
);
width = 0;
},
{
background = {
paths = (
{
closed = 1;
nodes = (
"34 -120 OFFCURVE",
"-34 -120 OFFCURVE",
"-120 -120 CURVE SMOOTH",
"-120 -120 OFFCURVE",
"-120 -120 OFFCURVE",
"-120 -120 CURVE SMOOTH",
"-120 -34 OFFCURVE",
"-120 34 OFFCURVE",
"-120 120 CURVE SMOOTH",
"-120 120 OFFCURVE",
"-120 120 OFFCURVE",
"-120 120 CURVE SMOOTH",
"-34 120 OFFCURVE",
"34 120 OFFCURVE",
"120 120 CURVE SMOOTH",
"120 120 OFFCURVE",
"120 120 OFFCURVE",
"120 120 CURVE SMOOTH",
"120 34 OFFCURVE",
"120 -34 OFFCURVE",
"120 -120 CURVE SMOOTH",
"120 -120 OFFCURVE",
"120 -120 OFFCURVE",
"120 -120 CURVE SMOOTH"
);
}
);
};
layerId = "21F17980-9185-40A4-B5A3-13BE69C2F7C8";
paths = (
{
closed = 1;
nodes = (
"120 0 OFFCURVE",
"120 -1 OFFCURVE",
"120 -1 CURVE",
"0 0 OFFCURVE",
"0 0 OFFCURVE",
"0 -120 CURVE",
"0 -120 OFFCURVE",
"-1 -120 OFFCURVE",
"-1 -120 CURVE",
"0 0 OFFCURVE",
"0 0 OFFCURVE",
"-120 0 CURVE",
"-120 0 OFFCURVE",
"-120 1 OFFCURVE",
"-120 1 CURVE",
"0 0 OFFCURVE",
"0 0 OFFCURVE",
"0 120 CURVE",
"0 120 OFFCURVE",
"1 120 OFFCURVE",
"1 120 CURVE",
"0 0 OFFCURVE",
"0 0 OFFCURVE",
"120 0 CURVE"
);
}
);
width = 0;
}
);
},
{
color = 6;
export = 0;
glyphname = "SHAP-1800";
lastChange = "2020-05-12 15:53:30 +0000";
layers = (
{
background = {
paths = (
{
closed = 1;
nodes = (
"34 -120 OFFCURVE",
"-34 -120 OFFCURVE",
"-120 -120 CURVE SMOOTH",
"-120 -120 OFFCURVE",
"-120 -120 OFFCURVE",
"-120 -120 CURVE SMOOTH",
"-120 -34 OFFCURVE",
"-120 34 OFFCURVE",
"-120 120 CURVE SMOOTH",
"-120 120 OFFCURVE",
"-120 120 OFFCURVE",
"-120 120 CURVE SMOOTH",
"-34 120 OFFCURVE",
"34 120 OFFCURVE",
"120 120 CURVE SMOOTH",
"120 120 OFFCURVE",
"120 120 OFFCURVE",
"120 120 CURVE SMOOTH",
"120 34 OFFCURVE",
"120 -34 OFFCURVE",
"120 -120 CURVE SMOOTH",
"120 -120 OFFCURVE",
"120 -120 OFFCURVE",
"120 -120 CURVE SMOOTH"
);
}
);
};
layerId = "D705B390-3487-4797-B79F-A044C23E058D";
paths = (
{
closed = 1;
nodes = (
"72 0 OFFCURVE",
"72 0 OFFCURVE",
"72 0 CURVE",
"72 -48 OFFCURVE",
"22 -63 OFFCURVE",
"0 -120 CURVE",
"0 -120 OFFCURVE",
"0 -120 OFFCURVE",
"0 -120 CURVE",
"-23 -63 OFFCURVE",
"-72 -48 OFFCURVE",
"-72 0 CURVE",
"-72 0 OFFCURVE",
"-72 0 OFFCURVE",
"-72 0 CURVE",
"-72 48 OFFCURVE",
"-23 63 OFFCURVE",
"-1 120 CURVE",
"-1 120 OFFCURVE",
"1 120 OFFCURVE",
"1 120 CURVE",
"23 63 OFFCURVE",
"72 48 OFFCURVE",
"72 0 CURVE"
);
}
);
width = 0;
},
{
background = {
paths = (
{
closed = 1;
nodes = (
"34 -120 OFFCURVE",
"-34 -120 OFFCURVE",
"-120 -120 CURVE SMOOTH",
"-120 -120 OFFCURVE",
"-120 -120 OFFCURVE",
"-120 -120 CURVE SMOOTH",
"-120 -34 OFFCURVE",
"-120 34 OFFCURVE",
"-120 120 CURVE SMOOTH",
"-120 120 OFFCURVE",
"-120 120 OFFCURVE",
"-120 120 CURVE SMOOTH",
"-34 120 OFFCURVE",
"34 120 OFFCURVE",
"120 120 CURVE SMOOTH",
"120 120 OFFCURVE",
"120 120 OFFCURVE",
"120 120 CURVE SMOOTH",
"120 34 OFFCURVE",
"120 -34 OFFCURVE",
"120 -120 CURVE SMOOTH",
"120 -120 OFFCURVE",
"120 -120 OFFCURVE",
"120 -120 CURVE SMOOTH"
);
}
);
};
layerId = "21F17980-9185-40A4-B5A3-13BE69C2F7C8";
paths = (
{
closed = 1;
nodes = (
"72 0 OFFCURVE",
"72 0 OFFCURVE",
"72 0 CURVE",
"72 -48 OFFCURVE",
"22 -63 OFFCURVE",
"0 -120 CURVE",
"0 -120 OFFCURVE",
"0 -120 OFFCURVE",
"0 -120 CURVE",
"-23 -63 OFFCURVE",
"-72 -48 OFFCURVE",
"-72 0 CURVE",
"-72 0 OFFCURVE",
"-72 0 OFFCURVE",
"-72 0 CURVE",
"-72 48 OFFCURVE",
"-23 63 OFFCURVE",
"-1 120 CURVE",
"-1 120 OFFCURVE",
"1 120 OFFCURVE",
"1 120 CURVE",
"23 63 OFFCURVE",
"72 48 OFFCURVE",
"72 0 CURVE"
);
}
);
width = 0;
}
);
},
{
color = 6;
export = 0;
glyphname = "SHAP-1900";
lastChange = "2020-05-12 15:53:30 +0000";
layers = (
{
background = {
paths = (
{
closed = 1;
nodes = (
"34 -120 OFFCURVE",
"-34 -120 OFFCURVE",
"-120 -120 CURVE SMOOTH",
"-120 -120 OFFCURVE",
"-120 -120 OFFCURVE",
"-120 -120 CURVE SMOOTH",
"-120 -34 OFFCURVE",
"-120 34 OFFCURVE",
"-120 120 CURVE SMOOTH",
"-120 120 OFFCURVE",
"-120 120 OFFCURVE",
"-120 120 CURVE SMOOTH",
"-34 120 OFFCURVE",
"34 120 OFFCURVE",
"120 120 CURVE SMOOTH",
"120 120 OFFCURVE",
"120 120 OFFCURVE",
"120 120 CURVE SMOOTH",
"120 34 OFFCURVE",
"120 -34 OFFCURVE",
"120 -120 CURVE SMOOTH",
"120 -120 OFFCURVE",
"120 -120 OFFCURVE",
"120 -120 CURVE SMOOTH"
);
}
);
};
layerId = "D705B390-3487-4797-B79F-A044C23E058D";
paths = (
{
closed = 1;
nodes = (
"120 48 OFFCURVE",
"120 48 OFFCURVE",
"120 48 CURVE",
"120 -29 OFFCURVE",
"58 -53 OFFCURVE",
"0 -120 CURVE",
"0 -120 OFFCURVE",
"0 -120 OFFCURVE",
"0 -120 CURVE",
"-59 -53 OFFCURVE",
"-120 -29 OFFCURVE",
"-120 48 CURVE",
"-120 48 OFFCURVE",
"-120 48 OFFCURVE",
"-120 48 CURVE",
"-120 135 OFFCURVE",
"-1 152 OFFCURVE",
"-1 48 CURVE",
"-1 48 OFFCURVE",
"1 48 OFFCURVE",
"1 48 CURVE",
"1 152 OFFCURVE",
"120 135 OFFCURVE",
"120 48 CURVE"
);
}
);
width = 0;
},
{
background = {
paths = (
{
closed = 1;
nodes = (
"34 -120 OFFCURVE",
"-34 -120 OFFCURVE",
"-120 -120 CURVE SMOOTH",
"-120 -120 OFFCURVE",
"-120 -120 OFFCURVE",
"-120 -120 CURVE SMOOTH",
"-120 -34 OFFCURVE",
"-120 34 OFFCURVE",
"-120 120 CURVE SMOOTH",
"-120 120 OFFCURVE",
"-120 120 OFFCURVE",
"-120 120 CURVE SMOOTH",
"-34 120 OFFCURVE",
"34 120 OFFCURVE",
"120 120 CURVE SMOOTH",
"120 120 OFFCURVE",
"120 120 OFFCURVE",
"120 120 CURVE SMOOTH",
"120 34 OFFCURVE",
"120 -34 OFFCURVE",
"120 -120 CURVE SMOOTH",
"120 -120 OFFCURVE",
"120 -120 OFFCURVE",
"120 -120 CURVE SMOOTH"
);
}
);
};
layerId = "21F17980-9185-40A4-B5A3-13BE69C2F7C8";
paths = (
{
closed = 1;
nodes = (
"120 48 OFFCURVE",
"120 48 OFFCURVE",
"120 48 CURVE",
"120 -29 OFFCURVE",
"58 -53 OFFCURVE",
"0 -120 CURVE",
"0 -120 OFFCURVE",
"0 -120 OFFCURVE",
"0 -120 CURVE",
"-59 -53 OFFCURVE",
"-120 -29 OFFCURVE",
"-120 48 CURVE",
"-120 48 OFFCURVE",
"-120 48 OFFCURVE",
"-120 48 CURVE",
"-120 135 OFFCURVE",
"-1 152 OFFCURVE",
"-1 48 CURVE",
"-1 48 OFFCURVE",
"1 48 OFFCURVE",
"1 48 CURVE",
"1 152 OFFCURVE",
"120 135 OFFCURVE",
"120 48 CURVE"
);
}
);
width = 0;
}
);
},
{
color = 3;
export = 0;
glyphname = "wght-100";
lastChange = "2020-05-11 15:20:08 +0000";
layers = (
{
background = {
paths = (
{
closed = 1;
nodes = (
"154 0 OFFCURVE",
"86 0 OFFCURVE",
"0 0 CURVE SMOOTH",
"0 0 OFFCURVE",
"0 0 OFFCURVE",
"0 0 CURVE SMOOTH",
"0 86 OFFCURVE",
"0 154 OFFCURVE",
"0 240 CURVE SMOOTH",
"0 240 OFFCURVE",
"0 240 OFFCURVE",
"0 240 CURVE SMOOTH",
"86 240 OFFCURVE",
"154 240 OFFCURVE",
"240 240 CURVE SMOOTH",
"240 240 OFFCURVE",
"240 240 OFFCURVE",
"240 240 CURVE SMOOTH",
"240 154 OFFCURVE",
"240 86 OFFCURVE",
"240 0 CURVE SMOOTH",
"240 0 OFFCURVE",
"240 0 OFFCURVE",
"240 0 CURVE SMOOTH"
);
}
);
};
components = (
{
alignment = -1;
name = "SHAP-300";
transform = "{0.1, 0, 0, 0.1, 0, 0}";
}
);
layerId = "D705B390-3487-4797-B79F-A044C23E058D";
width = 0;
},
{
background = {
paths = (
{
closed = 1;
nodes = (
"154 0 OFFCURVE",
"86 0 OFFCURVE",
"0 0 CURVE SMOOTH",
"0 0 OFFCURVE",
"0 0 OFFCURVE",
"0 0 CURVE SMOOTH",
"0 86 OFFCURVE",
"0 154 OFFCURVE",
"0 240 CURVE SMOOTH",
"0 240 OFFCURVE",
"0 240 OFFCURVE",
"0 240 CURVE SMOOTH",
"86 240 OFFCURVE",
"154 240 OFFCURVE",
"240 240 CURVE SMOOTH",
"240 240 OFFCURVE",
"240 240 OFFCURVE",
"240 240 CURVE SMOOTH",
"240 154 OFFCURVE",
"240 86 OFFCURVE",
"240 0 CURVE SMOOTH",
"240 0 OFFCURVE",
"240 0 OFFCURVE",
"240 0 CURVE SMOOTH"
);
}
);
};
components = (
{
alignment = -1;
name = "SHAP-300";
transform = "{0.1, 0, 0, 0.1, 0, 0}";
}
);
layerId = "21F17980-9185-40A4-B5A3-13BE69C2F7C8";
width = 0;
}
);
},
{
color = 3;
export = 0;
glyphname = "wght-400";
lastChange = "2020-05-11 15:20:08 +0000";
layers = (
{
background = {
paths = (
{
closed = 1;
nodes = (
"154 0 OFFCURVE",
"86 0 OFFCURVE",
"0 0 CURVE SMOOTH",
"0 0 OFFCURVE",
"0 0 OFFCURVE",
"0 0 CURVE SMOOTH",
"0 86 OFFCURVE",
"0 154 OFFCURVE",
"0 240 CURVE SMOOTH",
"0 240 OFFCURVE",
"0 240 OFFCURVE",
"0 240 CURVE SMOOTH",
"86 240 OFFCURVE",
"154 240 OFFCURVE",
"240 240 CURVE SMOOTH",
"240 240 OFFCURVE",
"240 240 OFFCURVE",
"240 240 CURVE SMOOTH",
"240 154 OFFCURVE",
"240 86 OFFCURVE",
"240 0 CURVE SMOOTH",
"240 0 OFFCURVE",
"240 0 OFFCURVE",
"240 0 CURVE SMOOTH"
);
}
);
};
components = (
{
alignment = -1;
name = "SHAP-300";
}
);
layerId = "D705B390-3487-4797-B79F-A044C23E058D";
width = 0;
},
{
background = {
paths = (
{
closed = 1;
nodes = (
"154 0 OFFCURVE",
"86 0 OFFCURVE",
"0 0 CURVE SMOOTH",
"0 0 OFFCURVE",
"0 0 OFFCURVE",
"0 0 CURVE SMOOTH",
"0 86 OFFCURVE",
"0 154 OFFCURVE",
"0 240 CURVE SMOOTH",
"0 240 OFFCURVE",
"0 240 OFFCURVE",
"0 240 CURVE SMOOTH",
"86 240 OFFCURVE",
"154 240 OFFCURVE",
"240 240 CURVE SMOOTH",
"240 240 OFFCURVE",
"240 240 OFFCURVE",
"240 240 CURVE SMOOTH",
"240 154 OFFCURVE",
"240 86 OFFCURVE",
"240 0 CURVE SMOOTH",
"240 0 OFFCURVE",
"240 0 OFFCURVE",
"240 0 CURVE SMOOTH"
);
}
);
};
components = (
{
alignment = -1;
name = "SHAP-300";
}
);
layerId = "21F17980-9185-40A4-B5A3-13BE69C2F7C8";
width = 0;
}
);
},
{
color = 3;
export = 0;
glyphname = "wght-900";
lastChange = "2020-05-11 15:20:08 +0000";
layers = (
{
background = {
paths = (
{
closed = 1;
nodes = (
"154 0 OFFCURVE",
"86 0 OFFCURVE",
"0 0 CURVE SMOOTH",
"0 0 OFFCURVE",
"0 0 OFFCURVE",
"0 0 CURVE SMOOTH",
"0 86 OFFCURVE",
"0 154 OFFCURVE",
"0 240 CURVE SMOOTH",
"0 240 OFFCURVE",
"0 240 OFFCURVE",
"0 240 CURVE SMOOTH",
"86 240 OFFCURVE",
"154 240 OFFCURVE",
"240 240 CURVE SMOOTH",
"240 240 OFFCURVE",
"240 240 OFFCURVE",
"240 240 CURVE SMOOTH",
"240 154 OFFCURVE",
"240 86 OFFCURVE",
"240 0 CURVE SMOOTH",
"240 0 OFFCURVE",
"240 0 OFFCURVE",
"240 0 CURVE SMOOTH"
);
}
);
};
components = (
{
alignment = -1;
name = "SHAP-300";
transform = "{2, 0, 0, 2, 0, 0}";
}
);
layerId = "D705B390-3487-4797-B79F-A044C23E058D";
width = 0;
},
{
background = {
paths = (
{
closed = 1;
nodes = (
"154 0 OFFCURVE",
"86 0 OFFCURVE",
"0 0 CURVE SMOOTH",
"0 0 OFFCURVE",
"0 0 OFFCURVE",
"0 0 CURVE SMOOTH",
"0 86 OFFCURVE",
"0 154 OFFCURVE",
"0 240 CURVE SMOOTH",
"0 240 OFFCURVE",
"0 240 OFFCURVE",
"0 240 CURVE SMOOTH",
"86 240 OFFCURVE",
"154 240 OFFCURVE",
"240 240 CURVE SMOOTH",
"240 240 OFFCURVE",
"240 240 OFFCURVE",
"240 240 CURVE SMOOTH",
"240 154 OFFCURVE",
"240 86 OFFCURVE",
"240 0 CURVE SMOOTH",
"240 0 OFFCURVE",
"240 0 OFFCURVE",
"240 0 CURVE SMOOTH"
);
}
);
};
components = (
{
alignment = -1;
name = "SHAP-300";
transform = "{2, 0, 0, 2, 0, 0}";
}
);
layerId = "21F17980-9185-40A4-B5A3-13BE69C2F7C8";
width = 0;
}
);
},
{
glyphname = shape;
lastChange = "2020-05-12 15:54:02 +0000";
layers = (
{
layerId = "D705B390-3487-4797-B79F-A044C23E058D";
paths = (
{
closed = 1;
nodes = (
"-120 120 OFFCURVE",
"-120 120 OFFCURVE",
"-120 120 CURVE SMOOTH",
"-120 120 OFFCURVE",
"-120 120 OFFCURVE",
"-120 120 CURVE SMOOTH",
"-120 120 OFFCURVE",
"-120 120 OFFCURVE",
"-120 120 CURVE SMOOTH",
"-120 120 OFFCURVE",
"-120 120 OFFCURVE",
"-120 120 CURVE SMOOTH",
"-120 120 OFFCURVE",
"-120 120 OFFCURVE",
"-120 120 CURVE SMOOTH",
"-120 120 OFFCURVE",
"-120 120 OFFCURVE",
"-120 120 CURVE SMOOTH",
"-120 120 OFFCURVE",
"-120 120 OFFCURVE",
"-120 120 CURVE SMOOTH",
"-120 120 OFFCURVE",
"-120 120 OFFCURVE",
"-120 120 CURVE SMOOTH"
);
}
